<svg width="37" height="37" viewBox="0 0 37 37" fill="none" xmlns="http://www.w3.org/2000/svg">
<path d="M18.2848 35.9786C28.0766 35.9786 36.0144 28.0408 36.0144 18.2489C36.0144 8.45714 28.0766 0.519318 18.2848 0.519318C8.49295 0.519318 0.555121 8.45714 0.555121 18.2489C0.555121 28.0408 8.49295 35.9786 18.2848 35.9786Z" fill="#212121"/>
<path d="M18.2852 36.2486C8.35942 36.2486 0.285156 28.1743 0.285156 18.2486C0.285156 8.32283 8.36158 0.24857 18.2852 0.24857C28.2087 0.24857 36.2852 8.32283 36.2852 18.2486C36.2852 28.1743 28.2109 36.2486 18.2852 36.2486ZM18.2852 0.791469C8.6579 0.791469 0.825892 8.62348 0.825892 18.2507C0.825892 27.878 8.6579 35.71 18.2852 35.71C27.9124 35.71 35.7444 27.878 35.7444 18.2507C35.7444 8.62348 27.9124 0.789306 18.2852 0.789306V0.791469Z" fill="#C0A769"/>
<path d="M18.2568 35.001C17.4673 35.001 16.68 34.9447 15.9035 34.8322C12.765 34.391 9.71314 32.9959 7.31444 30.9065C4.90925 28.8279 3.0967 26.0074 2.20989 22.9663C1.76865 21.4782 1.53938 19.8906 1.53073 18.249C1.53938 16.603 1.76865 15.0154 2.20989 13.5273C3.0967 10.4883 4.90925 7.67003 7.31444 5.58928C9.71098 3.50204 12.7629 2.10694 15.9035 1.6657C19.0397 1.20932 22.3577 1.68517 25.2452 3.00889C28.1263 4.32395 30.6591 6.51718 32.3743 9.18841C32.5711 9.48473 32.7506 9.80052 32.9258 10.1033L33.1032 10.4343C33.2481 10.709 33.3973 10.9945 33.525 11.2908C33.8429 11.9721 34.1154 12.7054 34.3599 13.5273C34.8011 15.0154 35.0304 16.603 35.039 18.2446C35.0304 19.8906 34.8011 21.4782 34.3599 22.9663C34.1176 23.7883 33.8429 24.5215 33.5228 25.2093C33.3973 25.497 33.2481 25.7825 33.1053 26.0594L32.9258 26.3903C32.7528 26.6931 32.5733 27.0089 32.3743 27.3074C30.6612 29.9743 28.1284 32.1697 25.2452 33.4847C23.0736 34.4818 20.6576 34.9966 18.2568 34.9988V35.001ZM18.2568 2.03773C17.4932 2.03773 16.7319 2.0918 15.9792 2.20211C12.9402 2.63037 9.98783 3.97788 7.66699 6.00023C5.33751 8.01393 3.58336 10.7414 2.72684 13.683C2.29858 15.1235 2.07796 16.6614 2.0693 18.2511C2.07796 19.8387 2.29858 21.3766 2.72684 22.8149C3.58553 25.7565 5.33967 28.4862 7.66699 30.4977C9.98783 32.5201 12.9402 33.8676 15.977 34.2958C19.0138 34.7371 22.2236 34.2764 25.0181 32.9959C27.8083 31.7241 30.2589 29.6001 31.9179 27.0154C32.1104 26.7277 32.2834 26.4206 32.4521 26.1264L32.6208 25.8106C32.7614 25.5446 32.9042 25.2677 33.0253 24.9909C33.3368 24.3203 33.6028 23.6131 33.8364 22.8149C34.2647 21.3744 34.4853 19.8387 34.494 18.2468C34.4853 16.6592 34.2647 15.1214 33.8386 13.683C33.6028 12.887 33.3389 12.1776 33.0296 11.5157C32.9064 11.2324 32.7614 10.9555 32.623 10.6895L32.4543 10.3759C32.2856 10.0795 32.1104 9.7724 31.9201 9.48906C30.2568 6.90002 27.8061 4.77601 25.0181 3.5042C22.9157 2.53953 20.5776 2.03989 18.2546 2.03989L18.2568 2.03773Z" fill="#C0A769"/>
<path d="M10.6086 8.50665L8.8501 6.18149L9.07072 6.01927C9.52494 5.68401 10.1327 5.25359 10.7924 4.89237C10.92 4.81667 11.0714 4.73448 11.2466 4.64796L11.4846 4.529L12.393 6.27449L12.1464 6.39778C12.0534 6.4432 11.3807 6.84118 10.9806 7.08127L10.7037 6.61624C10.7838 6.56865 11.3332 6.23989 11.6663 6.04738L11.2531 5.25359C11.1861 5.29036 11.1212 5.32713 11.0606 5.36173C10.5221 5.65589 10.0203 5.99764 9.61362 6.2918L10.721 7.75611C11.0931 7.49007 11.5148 7.2024 11.9604 6.96015C12.0664 6.89526 12.1918 6.82821 12.3433 6.7525L12.4838 6.68113C12.5639 6.64003 12.6461 6.59677 12.7261 6.55784L13.1197 6.38048C13.8357 6.06685 14.5797 5.81811 15.3389 5.64075L14.9582 3.84335C14.3569 3.98178 13.734 4.16995 13.1003 4.40788L13.429 5.23628C13.7859 5.11299 14.3851 4.90968 14.4954 4.87723L14.6511 5.39418C14.5148 5.43527 13.5069 5.77702 13.3706 5.82893L13.1219 5.9241L12.3973 4.10074L12.6504 4.00124C13.4918 3.66815 14.3223 3.41725 15.114 3.25503L15.3779 3.20095L15.9835 6.05171L15.7196 6.10795C14.9063 6.28098 14.106 6.53837 13.3447 6.87146L12.9597 7.0445C12.8883 7.07911 12.8126 7.11804 12.7369 7.15697L12.5898 7.23268C12.4492 7.30189 12.3368 7.36245 12.2329 7.42518C11.7182 7.70636 11.2337 8.04594 10.8292 8.34443L10.6151 8.50232L10.6086 8.50665Z" fill="#C0A769"/>
<path d="M22.9437 6.78006L22.6907 6.68273C21.9142 6.38425 21.1031 6.16579 20.2833 6.02952L19.8659 5.96464C19.7858 5.95382 19.7015 5.94517 19.615 5.93652L19.4527 5.91922C19.297 5.90191 19.1694 5.8911 19.0483 5.88677C18.4643 5.84135 17.8716 5.86514 17.3698 5.89326L17.1038 5.9084L16.8962 2.99924L17.1687 2.9841C17.7332 2.95166 18.4751 2.92138 19.2256 2.97762C19.3727 2.9841 19.5458 2.99708 19.7404 3.01871L20.0043 3.04899L19.8161 5.00645L19.5414 4.97401C19.4376 4.96103 18.6589 4.93075 18.1918 4.91128L18.2112 4.37055C18.3042 4.37487 18.9423 4.39867 19.3295 4.41813L19.416 3.52917C19.3381 3.52268 19.2667 3.51835 19.1954 3.51619C18.5832 3.47077 17.9755 3.48374 17.4737 3.50754L17.6056 5.33955C18.062 5.31792 18.5724 5.30927 19.0786 5.3482C19.2018 5.35252 19.3446 5.36334 19.5133 5.38281L19.6669 5.39795C19.7577 5.4066 19.8486 5.41525 19.9394 5.42823L20.3655 5.49312C21.1377 5.62073 21.8969 5.81756 22.6301 6.08144L23.2898 4.36622C22.7101 4.15425 22.085 3.97473 21.4232 3.82981L21.248 4.70364C21.6157 4.79449 22.2278 4.95238 22.3381 4.98266L22.1867 5.50177C22.0504 5.46067 21.0209 5.20112 20.876 5.16867L20.6164 5.11244L21.0014 3.18742L21.2675 3.24149C22.1543 3.42102 22.987 3.6611 23.7397 3.95743L23.9906 4.05476L22.9459 6.77574L22.9437 6.78006Z" fill="#C0A769"/>
<path d="M28.4054 10.9502L28.241 10.736C27.7371 10.0763 27.1617 9.46421 26.5323 8.91915L26.21 8.64662C26.1473 8.59687 26.0802 8.54496 26.011 8.49305L25.8813 8.39356C25.7558 8.29622 25.6541 8.22052 25.5547 8.15347C25.081 7.80956 24.5878 7.53054 24.1228 7.27964L23.8892 7.15419L25.2345 4.56731L25.4768 4.69709C25.9743 4.96313 26.6231 5.32651 27.2331 5.76775C27.3564 5.84994 27.4948 5.9516 27.6484 6.07272L27.8582 6.2371L26.6729 7.80524L26.4566 7.63436C26.3744 7.56948 25.7277 7.13472 25.3384 6.87517L25.639 6.42528C25.7169 6.47719 26.249 6.83191 26.5669 7.05037L27.1055 6.3366C27.0428 6.29118 26.9822 6.25008 26.926 6.21115C26.4285 5.8521 25.905 5.54496 25.4638 5.30271L24.6159 6.93141C25.0269 7.15852 25.4552 7.41158 25.8661 7.71007C25.9678 7.77712 26.0824 7.86147 26.2187 7.96746L26.342 8.06263C26.4155 8.11886 26.4869 8.17294 26.5583 8.23134L26.887 8.51035C27.4775 9.02297 28.0226 9.58966 28.5071 10.1974L29.9671 9.08137C29.5842 8.59687 29.1451 8.11454 28.6585 7.64518L28.0507 8.29839C28.3167 8.56876 28.7558 9.02297 28.8337 9.10733L28.4314 9.4707C28.3362 9.36472 27.5943 8.60336 27.4883 8.49954L27.2958 8.31569L28.6325 6.87734L28.8315 7.06118C29.4934 7.67979 30.0752 8.32002 30.564 8.96457L30.7262 9.1787L28.4097 10.9502H28.4054Z" fill="#C0A769"/>
<path d="M30.6418 17.5641L30.6245 17.2938C30.5682 16.4632 30.4276 15.637 30.2048 14.8345L30.088 14.4279C30.0643 14.3522 30.0361 14.27 30.008 14.1878L29.9561 14.0364C29.9064 13.8871 29.8631 13.7682 29.8155 13.6557C29.61 13.1063 29.3526 12.6024 29.1039 12.1352L28.9785 11.8994L31.5307 10.487L31.6605 10.7292C31.9287 11.2267 32.2683 11.8886 32.5322 12.5937C32.5906 12.7321 32.649 12.8922 32.7117 13.0782L32.7961 13.3313L30.9402 13.9823L30.8537 13.7206C30.8213 13.6211 30.5228 12.9008 30.3411 12.4683L30.8408 12.2606C30.8775 12.3471 31.1241 12.9355 31.2668 13.2945L32.1104 12.9982C32.0844 12.9268 32.0563 12.8576 32.0304 12.7927C31.8141 12.2174 31.548 11.6745 31.3144 11.2267L29.7095 12.1157C29.9215 12.5223 30.1443 12.9809 30.3216 13.4546C30.3692 13.5692 30.419 13.7033 30.4731 13.8634L30.5228 14.0083C30.5531 14.0948 30.5834 14.1813 30.6115 14.27L30.7326 14.6853C30.9424 15.438 31.083 16.2101 31.1501 16.9866L32.9821 16.8634C32.9302 16.2469 32.8307 15.6045 32.6857 14.9427L31.8184 15.1525C31.8898 15.5245 32.0066 16.1453 32.0239 16.2599L31.4896 16.3399C31.468 16.1972 31.2712 15.1525 31.2409 15.0097L31.1825 14.7502L33.0902 14.2916L33.1529 14.5555C33.3627 15.4358 33.4947 16.2923 33.5444 17.0991L33.5617 17.3673L30.6526 17.5641H30.6418Z" fill="#C0A769"/>
<path d="M31.4873 25.7746L28.9415 24.3557L29.0734 24.1199C29.4779 23.3932 29.811 22.6232 30.0597 21.8272L30.183 21.4227C30.2047 21.347 30.2241 21.2627 30.2458 21.1783L30.2847 21.0204C30.3258 20.8669 30.3539 20.7414 30.3734 20.6246C30.501 20.0536 30.5594 19.4891 30.6048 18.9613L30.6286 18.6953L33.5378 18.8986L33.5161 19.1711C33.4685 19.7335 33.395 20.4754 33.2328 21.2086C33.2068 21.3535 33.1679 21.5222 33.1203 21.7126L33.0533 21.97L31.1412 21.5071L31.2104 21.241C31.2364 21.1416 31.3791 20.3737 31.4613 19.913L31.9934 20.0103C31.9761 20.1033 31.8636 20.7306 31.7879 21.1091L32.6574 21.3189C32.6747 21.2432 32.6877 21.1718 32.7007 21.1026C32.8326 20.5035 32.904 19.9 32.9516 19.3982L31.1196 19.2706C31.0763 19.727 31.0136 20.2331 30.9033 20.7284C30.8817 20.8474 30.8514 20.9858 30.8081 21.1545L30.7714 21.3038C30.7497 21.3925 30.7281 21.4811 30.7021 21.5698L30.5767 21.9829C30.3409 22.7292 30.0381 23.4537 29.6747 24.1416L31.2796 25.037C31.5716 24.4941 31.8377 23.8993 32.0756 23.2656L31.2342 22.9692C31.0915 23.3196 30.8492 23.9058 30.8038 24.0096L30.3106 23.7847C30.369 23.6571 30.7735 22.6751 30.8254 22.5323L30.9184 22.2836L32.7677 22.9368L32.6769 23.192C32.3741 24.0464 32.0172 24.8359 31.6192 25.5388L31.4873 25.7724V25.7746Z" fill="#C0A769"/>
<path d="M25.4659 31.717L24.0405 29.1734L24.2763 29.0415C25.0009 28.6348 25.6887 28.1525 26.3181 27.6075L26.6339 27.3263C26.6923 27.2722 26.755 27.2116 26.8156 27.1489L26.9302 27.0364C27.0448 26.9283 27.1335 26.8353 27.2135 26.7466C27.6202 26.327 27.9662 25.8771 28.282 25.451L28.4399 25.2369L30.8105 26.9348L30.6483 27.1554C30.313 27.6096 29.8631 28.2023 29.3397 28.743C29.2402 28.8533 29.1213 28.9766 28.9785 29.1129L28.786 29.2967L27.4017 27.8994L27.6007 27.7091C27.6764 27.6377 28.1977 27.0581 28.5113 26.7098L28.9136 27.071C28.8509 27.1403 28.4248 27.6161 28.1631 27.8994L28.7925 28.5332C28.8466 28.477 28.8963 28.425 28.9439 28.3731C29.37 27.9319 29.7485 27.456 30.0492 27.0537L28.5567 25.9852C28.2734 26.3616 27.9641 26.7488 27.6094 27.1121C27.5272 27.2051 27.4277 27.3068 27.3044 27.4236L27.1962 27.5296C27.1314 27.5945 27.0643 27.6594 26.9972 27.7221L26.675 28.0098C26.0845 28.5224 25.4464 28.9809 24.7759 29.3746L25.6735 30.9773C26.2078 30.668 26.7463 30.3003 27.2806 29.885L26.7204 29.1907C26.4154 29.4157 25.905 29.7855 25.8076 29.8504L25.5048 29.4027C25.6238 29.3227 26.4825 28.6976 26.5993 28.6067L26.8091 28.4423L28.0441 29.9672L27.8321 30.1381C27.127 30.7069 26.4089 31.1936 25.7016 31.5829L25.4659 31.7127V31.717Z" fill="#C0A769"/>
<path d="M18.2765 33.5488C17.8958 33.5488 17.5259 33.5337 17.169 33.5055L16.9008 33.4839L17.1214 30.5769L17.3918 30.5964C18.2224 30.6591 19.0616 30.6375 19.8857 30.5315L20.3053 30.4731C20.3832 30.4601 20.4675 30.445 20.5519 30.4277L20.7119 30.3974C20.8633 30.3714 20.9909 30.3433 21.1077 30.313C21.6788 30.1898 22.2152 30.0059 22.7126 29.8264L22.9635 29.7355L23.9996 32.4608L23.7422 32.5539C23.2123 32.7464 22.5093 32.9908 21.7739 33.1508C21.6312 33.1876 21.4625 33.2244 21.27 33.259L21.0082 33.3066L20.6276 31.3772L20.8979 31.3296C20.9996 31.3123 21.7566 31.1177 22.2087 31.0009L22.3449 31.5243C22.2541 31.5481 21.6355 31.7081 21.2613 31.799L21.4343 32.675C21.5101 32.6577 21.5814 32.6425 21.6485 32.6252C22.2498 32.4933 22.8251 32.3073 23.2988 32.1386L22.6478 30.4212C22.2044 30.5769 21.7307 30.7283 21.2354 30.8365C21.1164 30.8689 20.9715 30.8992 20.8093 30.9273L20.6557 30.9576C20.567 30.9749 20.4762 30.9922 20.3875 31.0074L19.9592 31.0679C19.1827 31.1674 18.3997 31.1977 17.6211 31.1544L17.4827 32.9864C18.0991 33.0232 18.7501 33.0167 19.425 32.9648L19.3406 32.0758C18.9621 32.0931 18.3305 32.1191 18.2159 32.1213L18.2116 31.5805C18.3543 31.5805 19.4163 31.5351 19.5634 31.5221L19.8294 31.5005L20.0133 33.4536L19.7429 33.4774C19.2411 33.5229 18.7523 33.5466 18.2765 33.5466V33.5488Z" fill="#C0A769"/>
<path d="M15.3841 33.2528L15.1181 33.1923C14.5687 33.0668 13.8463 32.8873 13.1411 32.6212C12.9984 32.5737 12.8362 32.5109 12.6588 32.4374L12.4144 32.3336L13.1455 30.5081L13.3985 30.614C13.4937 30.6551 14.2334 30.9039 14.6768 31.0531L14.506 31.5657C14.4173 31.5355 13.8117 31.3343 13.4461 31.2067L13.113 32.0373C13.1844 32.0654 13.2536 32.0892 13.3207 32.1108C13.896 32.3271 14.4822 32.485 14.971 32.6018L15.3582 30.8065C14.9126 30.6984 14.4216 30.5643 13.9458 30.3848C13.829 30.348 13.697 30.2961 13.5391 30.229L13.392 30.1685C13.3077 30.1339 13.2233 30.1014 13.1411 30.0647L12.7496 29.883C12.0445 29.5455 11.3719 29.1411 10.7424 28.6825L9.62852 30.1425C10.126 30.5102 10.6754 30.8585 11.268 31.1829L11.6812 30.3934C11.3546 30.2031 10.8117 29.8808 10.7143 29.8181L11.0063 29.3617C11.1296 29.4396 12.0445 29.9803 12.1721 30.0495L12.4057 30.1771L11.4951 31.9161L11.2551 31.7907C10.4548 31.3689 9.72369 30.9039 9.08346 30.4107L8.87149 30.2463L10.6386 27.9277L10.8528 28.0921C11.5146 28.596 12.2305 29.0351 12.9811 29.3963L13.3639 29.5758C13.4353 29.6083 13.5153 29.6386 13.5932 29.671L13.7468 29.7337C13.8917 29.7943 14.0106 29.8419 14.1253 29.8786C14.6747 30.0863 15.2478 30.2312 15.7388 30.3437L15.9984 30.4042L15.382 33.255L15.3841 33.2528Z" fill="#C0A769"/>
<path d="M7.82034 29.4115L7.62567 29.219C7.22337 28.8231 6.7021 28.2911 6.24139 27.6963C6.14622 27.5816 6.04024 27.4454 5.92776 27.2875L5.77203 27.0712L7.35098 25.8989L7.51104 26.1238C7.5716 26.2082 8.07124 26.8095 8.36972 27.1663L7.95444 27.5146C7.89388 27.4432 7.48508 26.9522 7.24067 26.6537L6.52257 27.1858C6.57016 27.2464 6.61558 27.3048 6.65884 27.3567C7.03519 27.8412 7.45264 28.2824 7.80736 28.6393L9.07701 27.3134C8.75473 26.989 8.4065 26.6169 8.09503 26.2146C8.015 26.1195 7.92848 26.007 7.82899 25.8686L7.73598 25.7431C7.68191 25.6696 7.62784 25.596 7.57593 25.5225L7.338 25.1634C6.91407 24.5059 6.55285 23.8094 6.25653 23.0892L4.54348 23.751C4.77492 24.3242 5.06042 24.9082 5.39568 25.4965L6.16136 25.0402C5.984 24.7071 5.68768 24.149 5.63793 24.043L6.12459 23.8073C6.18732 23.9371 6.68479 24.8779 6.75833 25.0034L6.89027 25.2348L5.20534 26.2384L5.06691 26.0048C4.60404 25.2262 4.22553 24.4475 3.94002 23.6905L3.84485 23.4396L6.56583 22.3906L6.66316 22.6436C6.96165 23.4201 7.34233 24.1685 7.79222 24.8693L8.02582 25.2218C8.07124 25.2867 8.12099 25.356 8.1729 25.4252L8.27023 25.5571C8.36107 25.6847 8.43894 25.7864 8.5168 25.8794C8.87585 26.3444 9.28898 26.7684 9.64586 27.1209L9.83404 27.3091L7.81601 29.4136L7.82034 29.4115Z" fill="#C0A769"/>
<path d="M3.44479 21.9557L3.38856 21.6875C3.27176 21.1338 3.13117 20.4027 3.07493 19.6543C3.05763 19.5072 3.04681 19.3342 3.04032 19.1395L3.03167 18.8735L4.99562 18.7697L5.00644 19.0444C5.01076 19.1482 5.09512 19.9247 5.14703 20.3897L4.61062 20.4503C4.59981 20.3573 4.52843 19.7214 4.49166 19.3385L3.59836 19.3861C3.60485 19.464 3.61134 19.5354 3.61783 19.6046C3.66325 20.2167 3.76707 20.8137 3.86657 21.309L5.65748 20.9067C5.5688 20.4589 5.48229 19.955 5.44552 19.4488C5.43038 19.3255 5.42172 19.1828 5.41523 19.0141L5.40875 18.8627C5.40442 18.7697 5.40009 18.6767 5.39793 18.5837V18.1532C5.40875 17.3724 5.49094 16.5916 5.64451 15.8259L3.85143 15.4301C3.72814 16.0336 3.64379 16.6803 3.59836 17.3551L4.4895 17.3984C4.5241 17.022 4.58899 16.3948 4.60413 16.278L5.14054 16.3515C5.12107 16.4943 5.01509 17.5519 5.00644 17.699L4.98913 17.9651L3.02951 17.8699L3.04249 17.5995C3.08791 16.6954 3.20254 15.8367 3.38207 15.0473L3.44263 14.7855L6.28906 15.415L6.23066 15.6788C6.05114 16.4921 5.95381 17.3248 5.94299 18.1576V18.5793C5.94299 18.6615 5.94732 18.748 5.95164 18.8346L5.95813 18.9925C5.96246 19.1504 5.97111 19.278 5.98625 19.3969C6.02951 19.9852 6.13982 20.5649 6.24148 21.0559L6.29555 21.3176L3.44912 21.9579L3.44479 21.9557Z" fill="#C0A769"/>
<path d="M6.61343 14.3288L3.87947 13.3166L3.97897 13.0613C4.18228 12.5336 4.4613 11.8436 4.82468 11.1861C4.89173 11.0541 4.97392 10.9027 5.07558 10.734L5.21184 10.5069L6.91624 11.4889L6.77349 11.7246C6.71941 11.8133 6.36902 12.5098 6.15921 12.9294L5.67471 12.6871C5.71581 12.6028 6.00348 12.0318 6.18084 11.69L5.40651 11.2445C5.36974 11.3115 5.33513 11.3764 5.30485 11.4391C5.00853 11.9777 4.7706 12.5357 4.58459 13.0029L6.30629 13.641C6.47716 13.2149 6.67832 12.7455 6.92273 12.3021C6.97681 12.1918 7.04602 12.0664 7.1347 11.9215L7.21257 11.7895C7.25799 11.7095 7.30557 11.6295 7.35316 11.5516L7.58892 11.1904C8.02367 10.5415 8.51682 9.93155 9.06188 9.37135L7.77277 8.06277C7.34018 8.50185 6.91624 8.99716 6.51177 9.54006L7.23636 10.0613C7.47212 9.765 7.86794 9.27185 7.94148 9.18534L8.35027 9.5379C8.25727 9.64604 7.59324 10.4744 7.50456 10.5934L7.34667 10.8075L5.75474 9.66118L5.91264 9.44273C6.44256 8.70949 7.00709 8.05196 7.58675 7.48743L7.77926 7.29925L9.82324 9.37568L9.63073 9.56601C9.03809 10.15 8.50168 10.7967 8.03881 11.4889L7.80737 11.8436C7.76412 11.9128 7.72086 11.9863 7.6776 12.062L7.59757 12.2005C7.51538 12.3346 7.45482 12.4471 7.40074 12.5552C7.1174 13.0678 6.90326 13.5934 6.71076 14.0866L6.61343 14.3353V14.3288Z" fill="#C0A769"/>
<path d="M18.2913 29.7751C17.796 29.7665 17.2206 29.7449 16.641 29.6562C14.4867 29.3512 12.3908 28.393 10.7405 26.9568C9.08365 25.525 7.83563 23.5848 7.22568 21.4954C6.92503 20.4853 6.76714 19.393 6.75849 18.2488C6.76714 17.1003 6.92503 16.008 7.22568 14.9979C7.83347 12.9107 9.08148 10.9705 10.7405 9.53866C12.3908 8.10247 14.4867 7.14429 16.6431 6.83931C17.2228 6.75279 17.796 6.73116 18.2805 6.72035C18.7758 6.729 19.349 6.75063 19.9308 6.83931C21.0382 6.99937 22.0959 7.31083 23.0736 7.76289C25.057 8.667 26.8003 10.1789 27.9813 12.0196C29.1774 13.871 29.8111 16.0253 29.8111 18.2467C29.8111 20.4702 29.1774 22.6245 27.9813 24.4759C26.8003 26.3166 25.057 27.8285 23.0714 28.7326C22.0959 29.1825 21.0382 29.494 19.9286 29.654C19.349 29.7427 18.7758 29.7643 18.2891 29.773L18.2913 29.7751ZM18.2805 7.26325C17.8241 7.2719 17.2725 7.29353 16.721 7.37572C14.664 7.66555 12.6676 8.58048 11.0952 9.94746C9.51407 11.3144 8.32662 13.1616 7.74479 15.1515C7.45712 16.114 7.30787 17.1565 7.29922 18.251C7.30787 19.339 7.45712 20.3815 7.74479 21.344C8.32446 23.3361 9.51407 25.1832 11.0952 26.548C12.6676 27.9172 14.664 28.8299 16.7188 29.1198C17.2725 29.2041 17.8241 29.2236 18.2913 29.2322C18.7477 29.2236 19.2992 29.202 19.8508 29.1198C20.9106 28.9662 21.9164 28.6699 22.8464 28.2416C24.739 27.3786 26.4002 25.9381 27.5271 24.1839C28.6669 22.419 29.2704 20.3663 29.2704 18.2488C29.2704 16.1313 28.6669 14.0787 27.5271 12.3137C26.4002 10.5574 24.739 9.11689 22.8464 8.25604C21.9164 7.82561 20.9085 7.52929 19.8508 7.37572C19.2992 7.29137 18.7455 7.2719 18.2783 7.26325H18.2805Z" fill="#C0A769"/>
<path d="M12.8704 21.576C13.6509 20.7955 13.6509 19.5301 12.8704 18.7496C12.0899 17.9691 10.8245 17.9691 10.044 18.7496C9.2635 19.5301 9.2635 20.7955 10.044 21.576C10.8245 22.3565 12.0899 22.3565 12.8704 21.576Z" fill="#212121"/>
<path d="M11.4564 22.4316C10.2062 22.4316 9.18745 21.415 9.18745 20.1627C9.18745 18.9104 10.204 17.8938 11.4564 17.8938C12.7087 17.8938 13.7253 18.9104 13.7253 20.1627C13.7253 21.415 12.7087 22.4316 11.4564 22.4316ZM11.4564 18.4367C10.5047 18.4367 9.72818 19.211 9.72818 20.1649C9.72818 21.1187 10.5025 21.8931 11.4564 21.8931C12.4102 21.8931 13.1846 21.1187 13.1846 20.1649C13.1846 19.211 12.4102 18.4367 11.4564 18.4367Z" fill="#C0A769"/>
<path d="M11.4058 16.9579C11.6584 15.8834 10.9922 14.8076 9.91771 14.555C8.84324 14.3024 7.76742 14.9686 7.51481 16.0431C7.2622 17.1176 7.92845 18.1934 9.00293 18.446C10.0774 18.6986 11.1532 18.0324 11.4058 16.9579Z" fill="#212121"/>
<path d="M9.45783 18.7685C8.20765 18.7685 7.1889 17.752 7.1889 16.4996C7.1889 15.2473 8.20548 14.2307 9.45783 14.2307C10.7102 14.2307 11.7268 15.2473 11.7268 16.4996C11.7268 17.752 10.7102 18.7685 9.45783 18.7685ZM9.45783 14.7736C8.50613 14.7736 7.72964 15.5479 7.72964 16.5018C7.72964 17.4556 8.50397 18.23 9.45783 18.23C10.4117 18.23 11.186 17.4556 11.186 16.5018C11.186 15.5479 10.4117 14.7736 9.45783 14.7736Z" fill="#C0A769"/>
<path d="M26.0693 21.9386C27.1433 21.684 27.8075 20.6069 27.5528 19.5329C27.2982 18.4589 26.2211 17.7947 25.1471 18.0494C24.0731 18.304 23.4089 19.3811 23.6636 20.4551C23.9182 21.5291 24.9953 22.1933 26.0693 21.9386Z" fill="#212121"/>
<path d="M25.6064 22.2655C24.3562 22.2655 23.3374 21.2489 23.3374 19.9966C23.3374 18.7442 24.354 17.7276 25.6064 17.7276C26.8587 17.7276 27.8753 18.7442 27.8753 19.9966C27.8753 21.2489 26.8587 22.2655 25.6064 22.2655ZM25.6064 18.2705C24.6547 18.2705 23.8782 19.0449 23.8782 19.9987C23.8782 20.9526 24.6525 21.7269 25.6064 21.7269C26.5602 21.7269 27.3346 20.9526 27.3346 19.9987C27.3346 19.0449 26.5602 18.2705 25.6064 18.2705Z" fill="#C0A769"/>
<path d="M29.0181 17.7486C29.7986 16.9681 29.7986 15.7027 29.0181 14.9222C28.2376 14.1417 26.9722 14.1417 26.1917 14.9222C25.4112 15.7027 25.4112 16.9681 26.1917 17.7486C26.9722 18.5291 28.2376 18.5291 29.0181 17.7486Z" fill="#212121"/>
<path d="M27.6048 18.6025C26.3547 18.6025 25.3359 17.5859 25.3359 16.3335C25.3359 15.0812 26.3525 14.0646 27.6048 14.0646C28.8572 14.0646 29.8738 15.0812 29.8738 16.3335C29.8738 17.5859 28.8572 18.6025 27.6048 18.6025ZM27.6048 14.6075C26.6532 14.6075 25.8767 15.3818 25.8767 16.3357C25.8767 17.2896 26.651 18.0639 27.6048 18.0639C28.5587 18.0639 29.333 17.2896 29.333 16.3357C29.333 15.3818 28.5587 14.6075 27.6048 14.6075Z" fill="#C0A769"/>
<path d="M10.1562 13.0296C11.6854 19.4189 14.5167 28.1507 18.5787 28.1421C22.632 28.1334 25.4136 19.4124 26.9039 13.0296H10.1562Z" fill="#212121"/>
<path d="M18.5743 28.4124C14.4301 28.4124 11.5664 20.0829 9.89445 13.0922C9.87498 13.0122 9.89445 12.9279 9.9442 12.8608C9.99611 12.7959 10.074 12.757 10.1562 12.757H26.906C26.9882 12.757 27.066 12.7938 27.118 12.8586C27.1699 12.9235 27.1872 13.0079 27.1699 13.0879C25.5368 20.0721 22.7229 28.3994 18.5808 28.4102H18.5743V28.4124ZM10.5001 13.2999C12.7863 22.7022 15.65 27.8716 18.5743 27.8716H18.5787C21.4986 27.8651 24.3299 22.6935 26.5642 13.2999H10.5001Z" fill="#C0A769"/>
<path d="M19.1041 26.3014H17.9556V26.8421H19.1041V26.3014Z" fill="#C0A769"/>
<path d="M16.3637 19.1377H13.7249V19.6784H16.3637V19.1377Z" fill="#C0A769"/>
<path d="M23.3369 19.1377H20.6981V19.6784H23.3369V19.1377Z" fill="#C0A769"/>
<path d="M18.5309 22.9792C17.7565 22.9792 17.125 22.3541 17.1141 21.5841L16.6469 18.3678L13.3398 18.0542L13.3917 17.5156L17.1206 17.8682L17.6527 21.5625C17.6527 22.0448 18.0464 22.4385 18.5287 22.4385C19.011 22.4385 19.4047 22.0448 19.4047 21.5625V21.5236L19.9368 17.8682L23.6657 17.5156L23.7176 18.0542L20.4105 18.3678L19.9433 21.5841C19.9325 22.3563 19.3009 22.9792 18.5265 22.9792H18.5309Z" fill="#C0A769"/>
<path d="M15.321 19.3905H14.7803V20.2232H15.321V19.3905Z" fill="#C0A769"/>
<path d="M22.3136 19.3905H21.7729V20.2232H22.3136V19.3905Z" fill="#C0A769"/>
<path d="M18.5308 25.9098C17.644 25.9098 16.8502 25.4209 16.4587 24.6358L16.701 24.2443H20.3607L20.6029 24.6358C20.2114 25.4209 19.4176 25.9098 18.5308 25.9098ZM17.2071 24.785C17.5359 25.1571 18.0052 25.369 18.5308 25.369C19.0564 25.369 19.5279 25.1571 19.8545 24.785H17.2049H17.2071Z" fill="#C0A769"/>
<path d="M16.7013 24.787C16.6516 24.787 16.6018 24.774 16.5564 24.7437C16.4309 24.6637 16.3942 24.495 16.4742 24.3696C16.8743 23.7445 17.6443 23.3703 18.5312 23.3703C19.418 23.3703 20.188 23.7445 20.5881 24.3696C20.6681 24.495 20.6314 24.6616 20.5059 24.7437C20.3805 24.8238 20.2139 24.787 20.1317 24.6616C19.8354 24.1987 19.2211 23.9132 18.529 23.911C17.8369 23.911 17.2226 24.1987 16.9263 24.6616C16.8743 24.7416 16.7878 24.7848 16.6991 24.7848L16.7013 24.787Z" fill="#C0A769"/>
<path d="M27.2133 12.7812C27.2133 8.32118 23.3373 4.70691 18.5572 4.70691C13.7771 4.70691 9.9011 8.32118 9.9011 12.7812C9.9011 12.9326 10.9004 24.1842 10.9004 24.1842H12.3993V16.6939L15.077 14.1741L22.0547 14.1979L24.7172 16.6939V24.1842H26.2162C26.2162 24.1842 27.2154 12.9347 27.2154 12.7812H27.2133Z" fill="#212121"/>
<path d="M26.4604 24.4546H24.4446V16.8108L21.9442 14.4661L15.1807 14.4423L12.6652 16.8086V24.4524H10.6493L10.6277 24.2059C10.3941 21.5627 9.62841 12.9304 9.62841 12.779C9.62841 8.17847 13.632 4.43441 18.5549 4.43441C23.4777 4.43441 27.4813 8.17847 27.4813 12.779C27.4813 12.9369 26.6486 22.3263 26.482 24.2059L26.4604 24.4524V24.4546ZM24.9853 23.9139H25.9651C26.309 20.0335 26.9276 13.0516 26.9406 12.7769C26.9384 8.47695 23.1771 4.97731 18.5549 4.97731C13.9327 4.97731 10.1691 8.47695 10.1691 12.7812C10.18 12.9997 10.7986 20.0184 11.1446 23.9139H12.1244V16.5772L14.9665 13.9016L22.1583 13.9254L24.9853 16.575V23.9139Z" fill="#C0A769"/>
<path d="M19.3641 13.588H17.6986L15.036 0.270743H22.0267L19.3641 13.588Z" fill="#212121"/>
<path d="M19.5846 13.858H17.4757L14.705 0H22.3553L19.5846 13.858ZM19.1412 13.3172L21.6956 0.540735H15.3625L17.917 13.3172H19.1412Z" fill="#C0A769"/>
<path d="M19.0571 13.588H18.0059L16.8249 0.270743H20.2381L19.0571 13.588Z" fill="#212121"/>
<path d="M19.3035 13.858H17.757L16.5285 0H20.5321L19.3035 13.858ZM18.2523 13.3172H18.8082L19.9416 0.540735H17.119L18.2523 13.3172Z" fill="#C0A769"/>
<path d="M18.8018 0.353016H18.2611V13.5881H18.8018V0.353016Z" fill="#C0A769"/>
<path d="M22.2982 14.4203L18.5312 10.6533L14.7642 14.4203L18.5312 18.1873L22.2982 14.4203Z" fill="#212121"/>
<path d="M18.531 18.5687L14.3825 14.4202L18.531 10.2717L22.6796 14.4202L18.531 18.5687ZM15.146 14.4202L18.531 17.8052L21.916 14.4202L18.531 11.0352L15.146 14.4202Z" fill="#C0A769"/>
</svg>
