<svg width="468" height="109" viewBox="0 0 468 109" fill="none" xmlns="http://www.w3.org/2000/svg">
<path d="M2.74001 5.40111C1.56501 6.60036 0.88501 8.46749 0.88501 10.8855V97.134C0.88501 99.552 1.56501 101.419 2.74001 102.618L3.03001 102.882L52.6 54.5704V53.4296L3.03001 5.11837L2.74001 5.40111Z" fill="#121212"/>
<path d="M75.1049 70.6822L58.5999 54.5703V53.4296L75.1249 37.3177L75.4949 37.5273L95.0648 48.3839C100.65 51.4649 100.65 56.535 95.0648 59.6355L75.4949 70.4726L75.1049 70.6822Z" fill="#121212"/>
<path d="M72.4949 73.4726L55.6 57L5.73997 105.618C7.59496 107.52 10.62 107.749 14.06 105.848L72.4949 73.4726Z" fill="#121212"/>
<path d="M72.4949 34.5274L14.06 2.15253C10.62 0.270778 7.59496 0.499896 5.73997 2.40115L55.6 51L72.4949 34.5274Z" fill="#121212"/>
<path d="M153.67 15.9506C153.67 19.2071 152.67 21.8153 150.7 23.7604C148.435 26.0663 145.485 27.2265 141.87 27.2265C138.415 27.2265 135.465 26.0468 133.045 23.7214C130.62 21.3619 129.41 18.4661 129.41 15C129.41 11.5339 130.62 8.63815 133.045 6.29815C135.465 3.95327 138.415 2.77352 141.87 2.77352C143.59 2.77352 145.23 3.11964 146.795 3.76314C148.355 4.41152 149.625 5.28902 150.545 6.37127L148.455 8.42852C146.85 6.5809 144.665 5.66927 141.87 5.66927C139.35 5.66927 137.165 6.52727 135.31 8.25789C133.475 9.99339 132.555 12.2408 132.555 15C132.555 17.7593 133.475 20.0261 135.31 21.7616C137.165 23.4728 139.35 24.3503 141.87 24.3503C144.545 24.3503 146.795 23.4728 148.57 21.7421C149.74 20.5965 150.405 19.017 150.58 16.9988H141.87V14.181H153.49C153.63 14.7904 153.67 15.3803 153.67 15.9506Z" fill="#121212"/>
<path d="M172.105 6.18112H161.19V13.5911H171.03V16.4089H161.19V23.8189H172.105V26.6902H158.1V3.30975H172.105V6.18112Z" fill="#121212"/>
<path d="M185.115 26.6902H182.025V6.18112H175.33V3.30975H191.815V6.18112H185.115V26.6902Z" fill="#121212"/>
<path d="M203.745 26.6902V3.30975H206.83V26.6902H203.745Z" fill="#121212"/>
<path d="M220.505 26.6902H217.44V6.18112H210.72V3.30975H227.225V6.18112H220.505V26.6902Z" fill="#121212"/>
<path d="M258.435 23.6824C256.07 26.0468 253.14 27.2265 249.645 27.2265C246.13 27.2265 243.2 26.0468 240.835 23.6824C238.475 21.3229 237.3 18.4271 237.3 15C237.3 11.5729 238.475 8.67714 240.835 6.31764C243.2 3.95327 246.13 2.77352 249.645 2.77352C253.12 2.77352 256.05 3.95327 258.415 6.33714C260.795 8.71614 261.97 11.5924 261.97 15C261.97 18.4271 260.795 21.3229 258.435 23.6824ZM243.12 21.7226C244.9 23.4728 247.065 24.3503 249.645 24.3503C252.205 24.3503 254.39 23.4728 256.15 21.7226C257.925 19.9725 258.825 17.7251 258.825 15C258.825 12.2749 257.925 10.0275 256.15 8.2774C254.39 6.52727 252.205 5.64977 249.645 5.64977C247.065 5.64977 244.9 6.52727 243.12 8.2774C241.345 10.0275 240.445 12.2749 240.445 15C240.445 17.7251 241.345 19.9725 243.12 21.7226Z" fill="#121212"/>
<path d="M266.305 26.6902V3.30975H270.055L281.715 21.4935H281.85L281.715 16.9987V3.30975H284.8V26.6902H281.58L269.37 7.6095H269.235L269.37 12.1237V26.6902H266.305Z" fill="#121212"/>
<path d="M236.54 60.8348C227.145 60.8348 219.47 67.8061 219.47 77.4244C219.47 86.9648 227.145 94.0092 236.54 94.0092C245.955 94.0092 253.63 86.9648 253.63 77.4244C253.63 67.8061 245.955 60.8348 236.54 60.8348ZM236.54 87.4767C231.385 87.4767 226.95 83.3281 226.95 77.4244C226.95 71.4428 231.385 67.3673 236.54 67.3673C241.695 67.3673 246.15 71.4428 246.15 77.4244C246.15 83.3281 241.695 87.4767 236.54 87.4767ZM199.295 60.8348C189.88 60.8348 182.225 67.8061 182.225 77.4244C182.225 86.9648 189.88 94.0092 199.295 94.0092C208.705 94.0092 216.365 86.9648 216.365 77.4244C216.365 67.8061 208.705 60.8348 199.295 60.8348ZM199.295 87.4767C194.135 87.4767 189.685 83.3281 189.685 77.4244C189.685 71.4428 194.135 67.3673 199.295 67.3673C204.45 67.3673 208.885 71.4428 208.885 77.4244C208.885 83.3281 204.45 87.4767 199.295 87.4767ZM154.975 65.9194V72.9687H172.24C171.735 76.9077 170.385 79.8035 168.315 81.8217C165.795 84.2592 161.87 86.9648 154.975 86.9648C144.35 86.9648 136.03 78.6042 136.03 68.2448C136.03 57.8855 144.35 49.5248 154.975 49.5248C160.72 49.5248 164.9 51.7137 167.985 54.551L173.08 49.5833C168.765 45.5663 163.025 42.4805 154.975 42.4805C140.405 42.4805 128.16 54.0391 128.16 68.2448C128.16 82.4506 140.405 94.0092 154.975 94.0092C162.85 94.0092 168.765 91.4937 173.415 86.7747C178.18 82.1288 179.665 75.5963 179.665 70.3216C179.665 68.6836 179.525 67.1772 179.275 65.9194H154.975ZM336.205 71.3843C334.8 67.6744 330.465 60.8348 321.635 60.8348C312.885 60.8348 305.6 67.5575 305.6 77.4244C305.6 86.7162 312.81 94.0092 322.475 94.0092C330.29 94.0092 334.8 89.3633 336.655 86.6577L330.855 82.8893C328.92 85.6486 326.285 87.4767 322.475 87.4767C318.69 87.4767 315.975 85.7851 314.235 82.4506L336.99 73.2709L336.205 71.3843ZM313.005 76.9077C312.81 70.5117 318.1 67.2357 321.89 67.2357C324.86 67.2357 327.38 68.6836 328.22 70.7555L313.005 76.9077ZM294.51 93.0001H301.99V44.2501H294.51V93.0001ZM282.26 64.5301H282.01C280.33 62.5898 277.125 60.8348 273.065 60.8348C264.545 60.8348 256.755 68.1278 256.755 77.4781C256.755 86.7747 264.545 94.0092 273.065 94.0092C277.125 94.0092 280.33 92.2396 282.01 90.2408H282.26V92.6198C282.26 98.9622 278.785 102.37 273.18 102.37C268.61 102.37 265.775 99.1523 264.605 96.4467L258.1 99.0938C259.975 103.491 264.94 108.902 273.18 108.902C281.95 108.902 289.35 103.871 289.35 91.6302V61.8439H282.26V64.5301ZM273.705 87.4767C268.55 87.4767 264.235 83.2696 264.235 77.4781C264.235 71.633 268.55 67.3673 273.705 67.3673C278.785 67.3673 282.79 71.633 282.79 77.4781C282.79 83.2696 278.785 87.4767 273.705 87.4767ZM371.225 44.2501H353.335V93.0001H360.795V74.5287H371.225C379.51 74.5287 387.635 68.6836 387.635 59.387C387.635 50.0952 379.49 44.2501 371.225 44.2501ZM371.42 67.7476H360.795V51.0312H371.42C376.99 51.0312 380.17 55.5406 380.17 59.387C380.17 63.1602 376.99 67.7476 371.42 67.7476ZM417.535 60.7422C412.145 60.7422 406.54 63.0627 404.235 68.2058L410.855 70.9114C412.28 68.2058 414.9 67.3283 417.67 67.3283C421.54 67.3283 425.465 69.5952 425.525 73.5976V74.1095C424.175 73.349 421.285 72.2228 417.73 72.2228C410.6 72.2228 403.335 76.0497 403.335 83.1916C403.335 89.7241 409.175 93.9312 415.74 93.9312C420.76 93.9312 423.53 91.7228 425.27 89.1537H425.525V92.9221H432.73V74.2216C432.73 65.5782 426.11 60.7422 417.535 60.7422ZM416.635 87.4572C414.195 87.4572 410.795 86.2774 410.795 83.3281C410.795 79.5548 415.035 78.1069 418.705 78.1069C421.99 78.1069 423.53 78.8138 425.525 79.7449C424.94 84.2592 420.955 87.4572 416.635 87.4572ZM458.98 61.8098L450.405 82.9429H450.15L441.285 61.8098H433.24L446.56 91.3426L438.96 107.776H446.755L467.28 61.8098H458.98ZM391.735 93.0001H399.215V44.2501H391.735V93.0001Z" fill="#121212"/>
</svg>
