<svg width="24" height="24" viewBox="0 0 24 24" fill="none" xmlns="http://www.w3.org/2000/svg">
<g clip-path="url(#clip0_77_1931)">
<path d="M12 0C8.74539 0 8.33579 0.0110701 7.05166 0.0774908C5.7786 0.132841 4.90406 0.343173 4.14022 0.630996C3.35424 0.940959 2.67897 1.35055 2.01476 2.01476C1.35055 2.67897 0.940959 3.35424 0.630996 4.14022C0.332103 4.90406 0.132841 5.7786 0.0774908 7.05166C0.0221402 8.33579 0 8.74539 0 12C0 15.2546 0.0110701 15.6642 0.0774908 16.9483C0.132841 18.2214 0.343173 19.0959 0.630996 19.8598C0.940959 20.6458 1.35055 21.321 2.01476 21.9852C2.67897 22.6494 3.35424 23.059 4.14022 23.369C4.90406 23.6679 5.7786 23.8672 7.05166 23.9225C8.33579 23.9779 8.74539 24 12 24C15.2546 24 15.6642 23.9889 16.9483 23.9225C18.2214 23.8672 19.0959 23.6568 19.8598 23.369C20.6458 23.059 21.321 22.6494 21.9852 21.9852C22.6494 21.321 23.059 20.6458 23.369 19.8598C23.6679 19.0959 23.8672 18.2214 23.9225 16.9483C23.9779 15.6642 24 15.2657 24 12C24 8.73432 23.9889 8.33579 23.9225 7.05166C23.8672 5.7786 23.6568 4.90406 23.369 4.14022C23.059 3.35424 22.6494 2.67897 21.9852 2.01476C21.321 1.35055 20.6458 0.940959 19.8598 0.630996C19.0959 0.332103 18.2214 0.132841 16.9483 0.0774908C15.6642 0.0221402 15.2657 0 12 0ZM10.9262 2.15867C11.2472 2.15867 11.6015 2.15867 12 2.15867C15.1993 2.15867 15.5867 2.16974 16.8487 2.22509C18.0221 2.28044 18.6531 2.46863 19.0738 2.63469C19.6384 2.85609 20.0369 3.1107 20.4576 3.53137C20.8782 3.95203 21.1328 4.35055 21.3542 4.91513C21.5203 5.33579 21.7196 5.97786 21.7638 7.14022C21.8192 8.40221 21.8303 8.78967 21.8303 11.9889C21.8303 15.1882 21.8192 15.5756 21.7638 16.8376C21.7085 18.0111 21.5092 18.6421 21.3542 19.0627C21.1328 19.6273 20.8782 20.0258 20.4576 20.4465C20.0369 20.8672 19.6384 21.1218 19.0738 21.3432C18.6531 21.5092 18.0111 21.7085 16.8487 21.7528C15.5867 21.8081 15.1993 21.8192 12 21.8192C8.80074 21.8192 8.41328 21.8081 7.15129 21.7528C5.97786 21.6974 5.34686 21.4982 4.9262 21.3432C4.36162 21.1218 3.9631 20.8672 3.54244 20.4465C3.12177 20.0258 2.86716 19.6273 2.64576 19.0627C2.4797 18.6421 2.28044 18 2.23616 16.8376C2.18081 15.5756 2.16974 15.1882 2.16974 11.9889C2.16974 8.78967 2.18081 8.40221 2.23616 7.14022C2.29151 5.96679 2.4797 5.33579 2.64576 4.91513C2.86716 4.35055 3.12177 3.95203 3.54244 3.53137C3.9631 3.1107 4.36162 2.85609 4.9262 2.63469C5.34686 2.46863 5.98893 2.26937 7.15129 2.22509C8.2583 2.16974 8.69004 2.15867 10.9262 2.15867ZM18.4096 4.15129C17.6125 4.15129 16.9705 4.79336 16.9705 5.59041C16.9705 6.38745 17.6125 7.02952 18.4096 7.02952C19.2066 7.02952 19.8487 6.38745 19.8487 5.59041C19.8487 4.79336 19.2066 4.15129 18.4096 4.15129ZM12 5.83395C8.60148 5.83395 5.83395 8.59041 5.83395 12C5.83395 15.4096 8.59041 18.1661 12 18.1661C15.4096 18.1661 18.1661 15.4096 18.1661 12C18.1661 8.59041 15.4096 5.83395 12 5.83395ZM12 7.99262C14.214 7.99262 15.9963 9.78598 15.9963 11.9889C15.9963 14.1919 14.203 15.9852 12 15.9852C9.79705 15.9852 8.00369 14.1919 8.00369 11.9889C8.00369 9.78598 9.79705 7.99262 12 7.99262Z" fill="#C0A769"/>
</g>
<defs>
<clipPath id="clip0_77_1931">
<rect width="24" height="24" fill="#C0A769"/>
</clipPath>
</defs>
</svg>
