<svg width="378" height="382" viewBox="0 0 378 382" fill="none" xmlns="http://www.w3.org/2000/svg">
<path d="M188.8 382C84.69 382 0 296.465 0 191.317C0 86.1681 84.7127 0.63324 188.8 0.63324C292.887 0.63324 377.6 86.1681 377.6 191.317C377.6 296.465 292.91 382 188.8 382ZM188.8 6.38445C87.8208 6.38445 5.67171 89.353 5.67171 191.34C5.67171 293.326 87.8208 376.295 188.8 376.295C289.779 376.295 371.928 293.326 371.928 191.34C371.928 89.353 289.779 6.36153 188.8 6.36153V6.38445Z" fill="#C0A769"/>
<path d="M188.502 368.783C180.221 368.783 171.963 368.188 163.818 366.996C130.9 362.322 98.8886 347.543 73.7289 325.409C48.5011 303.389 29.4895 273.51 20.1879 241.294C15.5598 225.53 13.155 208.712 13.0642 191.321C13.155 173.884 15.5598 157.066 20.1879 141.301C29.4895 109.108 48.5011 79.2525 73.7289 57.2101C98.8659 35.0989 130.877 20.3199 163.818 15.6456C196.714 10.8109 231.516 15.8518 261.803 29.8747C292.022 43.8059 318.588 67.0398 336.579 95.3376C338.643 98.4767 340.526 101.822 342.364 105.03L344.224 108.536C345.744 111.446 347.31 114.47 348.648 117.609C351.983 124.827 354.842 132.594 357.405 141.301C362.033 157.066 364.438 173.884 364.529 191.275C364.438 208.712 362.033 225.53 357.405 241.294C354.864 250.001 351.983 257.769 348.625 265.055C347.31 268.103 345.744 271.127 344.247 274.06L342.364 277.566C340.549 280.774 338.666 284.119 336.579 287.281C318.611 315.533 292.044 338.79 261.803 352.721C239.025 363.284 213.684 368.738 188.502 368.76V368.783ZM188.502 19.5867C180.493 19.5867 172.507 20.1595 164.612 21.3281C132.737 25.8649 101.77 40.1398 77.4268 61.5636C52.9931 82.8957 34.594 111.789 25.61 142.951C21.118 158.211 18.804 174.503 18.7132 191.344C18.804 208.162 21.118 224.453 25.61 239.691C34.6167 270.852 53.0158 299.769 77.4268 321.078C101.77 342.502 132.737 356.777 164.59 361.314C196.442 365.988 230.109 361.107 259.421 347.543C288.687 334.07 314.391 311.569 331.792 284.188C333.811 281.14 335.626 277.887 337.395 274.771L339.165 271.425C340.64 268.607 342.137 265.674 343.407 262.741C346.674 255.638 349.465 248.146 351.915 239.691C356.407 224.43 358.721 208.162 358.812 191.298C358.721 174.48 356.407 158.188 351.938 142.951C349.465 134.519 346.697 127.004 343.453 119.992C342.16 116.991 340.64 114.058 339.188 111.239L337.418 107.917C335.649 104.778 333.811 101.524 331.814 98.5225C314.368 71.0955 288.664 48.5947 259.421 35.1218C237.369 24.9025 212.845 19.6096 188.479 19.6096L188.502 19.5867Z" fill="#C0A769"/>
<path d="M108.283 88.1156L89.8381 63.484L92.1522 61.7655C96.9164 58.2139 103.291 53.6542 110.211 49.8277C111.549 49.0257 113.138 48.155 114.975 47.2385L117.471 45.9783L126.999 64.4692L124.413 65.7753C123.437 66.2564 116.382 70.4725 112.185 73.0158L109.281 68.0895C110.12 67.5854 115.883 64.1026 119.376 62.0633L115.043 53.6542C114.34 54.0437 113.659 54.4333 113.024 54.7999C107.375 57.9161 102.112 61.5363 97.8466 64.6525L109.462 80.1647C113.364 77.3464 117.788 74.299 122.462 71.7327C123.573 71.0453 124.889 70.335 126.477 69.533L127.952 68.7769C128.791 68.3415 129.654 67.8833 130.493 67.4708L134.622 65.592C142.131 62.2696 149.936 59.6345 157.899 57.7557L153.906 38.7148C147.599 40.1813 141.065 42.1747 134.418 44.6952L137.866 53.4709C141.61 52.1648 147.894 50.011 149.051 49.6673L150.684 55.1436C149.255 55.5789 138.683 59.1992 137.254 59.7491L134.645 60.7573L127.045 41.4415L129.699 40.3875C138.524 36.8589 147.236 34.2009 155.539 32.4824L158.307 31.9096L164.659 62.1092L161.892 62.7049C153.361 64.538 144.967 67.2646 136.981 70.7932L132.943 72.6263C132.194 72.9929 131.4 73.4053 130.606 73.8178L129.064 74.6198C127.589 75.353 126.409 75.9945 125.32 76.659C119.921 79.6377 114.839 83.2351 110.597 86.3971L108.351 88.0698L108.283 88.1156Z" fill="#C0A769"/>
<path d="M237.665 69.825L235.011 68.7939C226.866 65.6319 218.359 63.3177 209.76 61.8741L205.382 61.1868C204.542 61.0722 203.658 60.9805 202.75 60.8889L201.049 60.7056C199.415 60.5223 198.077 60.4077 196.806 60.3619C190.681 59.8807 184.464 60.1327 179.201 60.4306L176.411 60.591L174.233 29.7728L177.091 29.6124C183.012 29.2687 190.794 28.9479 198.666 29.5437C200.209 29.6124 202.024 29.7499 204.066 29.979L206.834 30.2998L204.86 51.0362L201.979 50.6925C200.89 50.555 192.722 50.2343 187.822 50.028L188.026 44.2998C189.002 44.3456 195.694 44.5976 199.755 44.8038L200.663 35.3865C199.846 35.3178 199.097 35.272 198.349 35.2491C191.928 34.7679 185.553 34.9054 180.29 35.1574L181.674 54.5648C186.461 54.3357 191.815 54.2441 197.124 54.6565C198.417 54.7023 199.914 54.8169 201.684 55.0231L203.295 55.1835C204.247 55.2752 205.2 55.3668 206.153 55.5043L210.622 56.1917C218.722 57.5436 226.685 59.6287 234.376 62.4241L241.295 44.2539C235.215 42.0084 228.658 40.1066 221.716 38.5715L219.879 47.8284C223.735 48.7907 230.156 50.4634 231.313 50.7842L229.725 56.2833C228.295 55.848 217.496 53.0984 215.976 52.7547L213.254 52.159L217.292 31.7662L220.083 32.3391C229.384 34.2409 238.119 36.7842 246.014 39.9233L248.646 40.9544L237.688 69.7792L237.665 69.825Z" fill="#C0A769"/>
<path d="M294.951 114.001L293.226 111.733C287.94 104.745 281.906 98.2601 275.304 92.486L271.924 89.5989C271.266 89.0719 270.562 88.522 269.836 87.9721L268.475 86.9181C267.159 85.887 266.093 85.085 265.049 84.3747C260.081 80.7315 254.908 77.7757 250.031 75.1178L247.581 73.7889L261.692 46.3847L264.233 47.7595C269.451 50.5778 276.257 54.4272 282.654 59.1015C283.948 59.9722 285.4 61.0491 287.01 62.3323L289.211 64.0737L276.779 80.6857L274.51 78.8756C273.648 78.1882 266.864 73.5826 262.781 70.8331L265.934 66.0671C266.751 66.617 272.332 70.3748 275.667 72.689L281.316 65.1277C280.658 64.6465 280.023 64.2112 279.433 63.7987C274.215 59.9951 268.725 56.7415 264.097 54.1752L255.203 71.4288C259.514 73.8347 264.006 76.5155 268.316 79.6775C269.383 80.3879 270.585 81.2815 272.014 82.4042L273.307 83.4124C274.079 84.0081 274.827 84.581 275.576 85.1996L279.025 88.1554C285.218 93.5858 290.935 99.5891 296.017 106.028L311.331 94.2045C307.315 89.0719 302.71 83.9623 297.605 78.9901L291.23 85.9099C294.021 88.7741 298.626 93.5858 299.443 94.4795L295.223 98.3289C294.225 97.2061 286.443 89.1407 285.331 88.0409L283.312 86.0932L297.333 70.856L299.42 72.8036C306.362 79.3568 312.465 86.139 317.592 92.9672L319.294 95.2356L294.996 114.001H294.951Z" fill="#C0A769"/>
<path d="M318.409 184.066L318.228 181.202C317.638 172.403 316.163 163.651 313.826 155.15L312.601 150.842C312.352 150.04 312.057 149.169 311.762 148.299L311.217 146.695C310.696 145.114 310.242 143.854 309.743 142.662C307.587 136.842 304.888 131.503 302.279 126.554L300.963 124.057L327.733 109.094L329.095 111.661C331.908 116.931 335.47 123.942 338.237 131.412C338.85 132.878 339.462 134.574 340.12 136.544L341.005 139.225L321.54 146.122L320.632 143.349C320.292 142.295 317.161 134.665 315.256 130.083L320.496 127.883C320.882 128.8 323.468 135.032 324.966 138.836L333.813 135.696C333.541 134.94 333.246 134.207 332.974 133.52C330.705 127.425 327.915 121.674 325.465 116.931L308.631 126.348C310.854 130.656 313.191 135.513 315.051 140.531C315.551 141.746 316.072 143.166 316.64 144.862L317.161 146.397C317.479 147.313 317.797 148.23 318.091 149.169L319.362 153.569C321.563 161.543 323.037 169.723 323.741 177.948L342.956 176.642C342.412 170.112 341.368 163.307 339.848 156.295L330.751 158.518C331.499 162.459 332.724 169.035 332.906 170.25L327.302 171.097C327.075 169.585 325.011 158.518 324.693 157.006L324.081 154.256L344.091 149.399L344.749 152.194C346.949 161.52 348.333 170.593 348.855 179.14L349.036 181.981L318.523 184.066H318.409Z" fill="#C0A769"/>
<path d="M327.279 271.044L300.576 256.013L301.96 253.515C306.203 245.816 309.696 237.659 312.305 229.227L313.598 224.942C313.825 224.14 314.029 223.247 314.256 222.353L314.665 220.681C315.096 219.054 315.391 217.725 315.595 216.487C316.933 210.438 317.546 204.458 318.022 198.867L318.272 196.049L348.786 198.203L348.559 201.09C348.06 207.047 347.288 214.906 345.587 222.674C345.315 224.209 344.906 225.996 344.407 228.013L343.704 230.739L323.649 225.836L324.375 223.018C324.647 221.964 326.144 213.83 327.006 208.949L332.587 209.98C332.406 210.965 331.226 217.61 330.432 221.62L339.552 223.843C339.734 223.041 339.87 222.285 340.006 221.551C341.39 215.204 342.139 208.812 342.638 203.496L323.422 202.144C322.968 206.979 322.31 212.34 321.153 217.587C320.926 218.848 320.609 220.314 320.155 222.101L319.769 223.682C319.542 224.622 319.316 225.561 319.043 226.501L317.727 230.877C315.255 238.782 312.078 246.458 308.267 253.744L325.101 263.23C328.163 257.479 330.954 251.178 333.449 244.464L324.624 241.325C323.127 245.037 320.586 251.247 320.11 252.347L314.937 249.964C315.55 248.612 319.792 238.209 320.336 236.697L321.312 234.062L340.709 240.982L339.756 243.685C336.58 252.736 332.837 261.099 328.663 268.546L327.279 271.021V271.044Z" fill="#C0A769"/>
<path d="M264.118 333.995L249.167 307.05L251.64 305.652C259.24 301.344 266.454 296.235 273.056 290.46L276.369 287.482C276.981 286.909 277.639 286.267 278.274 285.603L279.477 284.411C280.679 283.266 281.609 282.28 282.449 281.341C286.714 276.896 290.344 272.13 293.656 267.616L295.312 265.348L320.177 283.334L318.475 285.672C314.959 290.483 310.24 296.762 304.75 302.49C303.706 303.658 302.458 304.965 300.961 306.408L298.942 308.356L284.422 293.554L286.51 291.537C287.304 290.781 292.771 284.641 296.061 280.952L300.28 284.778C299.623 285.511 295.153 290.552 292.408 293.554L299.01 300.267C299.577 299.672 300.099 299.122 300.598 298.572C305.067 293.897 309.038 288.857 312.191 284.595L296.537 273.276C293.565 277.262 290.321 281.364 286.6 285.213C285.738 286.199 284.695 287.276 283.401 288.513L282.267 289.636C281.587 290.323 280.883 291.01 280.18 291.675L276.8 294.722C270.606 300.153 263.913 305.01 256.881 309.181L266.296 326.159C271.899 322.883 277.548 318.987 283.152 314.588L277.276 307.233C274.077 309.616 268.723 313.534 267.702 314.221L264.526 309.478C265.774 308.631 274.78 302.009 276.006 301.046L278.206 299.305L291.16 315.459L288.937 317.269C281.541 323.295 274.009 328.451 266.591 332.575L264.118 333.95V333.995Z" fill="#C0A769"/>
<path d="M188.708 353.401C184.715 353.401 180.836 353.24 177.093 352.942L174.28 352.713L176.594 321.918L179.429 322.124C188.141 322.789 196.944 322.559 205.587 321.437L209.989 320.818C210.805 320.681 211.69 320.52 212.575 320.337L214.254 320.016C215.842 319.741 217.18 319.443 218.405 319.122C224.395 317.816 230.021 315.869 235.239 313.967L237.871 313.005L248.738 341.875L246.038 342.86C240.48 344.9 233.107 347.489 225.393 349.185C223.896 349.574 222.126 349.964 220.107 350.33L217.362 350.834L213.369 330.396L216.205 329.892C217.271 329.708 225.212 327.646 229.953 326.409L231.382 331.954C230.429 332.206 223.941 333.901 220.016 334.864L221.831 344.144C222.625 343.96 223.374 343.8 224.077 343.617C230.384 342.219 236.419 340.248 241.387 338.461L234.559 320.268C229.908 321.918 224.939 323.522 219.744 324.667C218.496 325.011 216.976 325.332 215.275 325.63L213.664 325.951C212.734 326.134 211.781 326.317 210.851 326.478L206.359 327.119C198.214 328.173 190.002 328.494 181.834 328.036L180.382 347.443C186.848 347.833 193.677 347.764 200.755 347.214L199.87 337.797C195.9 337.98 189.276 338.255 188.073 338.278L188.028 332.55C189.525 332.55 200.664 332.068 202.207 331.931L204.998 331.702L206.926 352.392L204.09 352.644C198.827 353.126 193.699 353.378 188.708 353.378V353.401Z" fill="#C0A769"/>
<path d="M158.373 350.265L155.583 349.624C149.82 348.295 142.243 346.393 134.847 343.574C133.35 343.07 131.648 342.406 129.788 341.627L127.224 340.527L134.892 321.188L137.547 322.311C138.545 322.746 146.304 325.381 150.955 326.962L149.163 332.393C148.232 332.072 141.88 329.941 138.046 328.589L134.552 337.388C135.301 337.686 136.027 337.938 136.73 338.167C142.765 340.458 148.913 342.131 154.04 343.368L158.101 324.35C153.428 323.205 148.278 321.784 143.287 319.882C142.062 319.493 140.678 318.943 139.021 318.232L137.479 317.591C136.594 317.224 135.709 316.881 134.847 316.491L130.741 314.566C123.345 310.992 116.289 306.707 109.687 301.85L98.0036 317.316C103.222 321.211 108.984 324.9 115.2 328.337L119.533 319.974C116.108 317.958 110.413 314.543 109.392 313.879L112.455 309.044C113.748 309.869 123.345 315.597 124.683 316.331L127.134 317.683L117.582 336.105L115.064 334.776C106.67 330.308 99.0019 325.381 92.2866 320.157L90.0632 318.416L108.598 293.853L110.844 295.594C117.787 300.933 125.296 305.584 133.168 309.411L137.184 311.313C137.933 311.656 138.772 311.977 139.589 312.321L141.199 312.985C142.719 313.627 143.967 314.131 145.17 314.521C150.932 316.72 156.944 318.255 162.094 319.447L164.816 320.088L158.351 350.288L158.373 350.265Z" fill="#C0A769"/>
<path d="M79.0378 309.571L76.996 307.532C72.7762 303.339 67.3087 297.702 62.4764 291.401C61.4782 290.187 60.3665 288.743 59.1868 287.071L57.5533 284.779L74.1147 272.36L75.7936 274.743C76.4288 275.637 81.6695 282.007 84.8003 285.787L80.4444 289.476C79.8091 288.72 75.5213 283.519 72.9577 280.357L65.4257 285.994C65.9248 286.635 66.4012 287.254 66.855 287.804C70.8025 292.936 75.181 297.611 78.9017 301.391L92.2189 287.345C88.8385 283.909 85.1859 279.967 81.919 275.706C81.0796 274.697 80.1721 273.506 79.1285 272.04L78.153 270.711C77.5858 269.931 77.0187 269.152 76.4742 268.373L73.9786 264.57C69.532 257.604 65.7433 250.226 62.6352 242.596L44.6672 249.607C47.0947 255.679 50.0894 261.866 53.6058 268.098L61.637 263.264C59.7767 259.735 56.6686 253.824 56.1468 252.701L61.2513 250.203C61.9092 251.578 67.1272 261.545 67.8986 262.874L69.2825 265.326L51.6094 275.958L50.1574 273.483C45.3024 265.234 41.3322 256.986 38.3376 248.966L37.3394 246.308L65.8794 235.195L66.9003 237.876C70.0311 246.102 74.024 254.03 78.7429 261.454L81.1931 265.188C81.6695 265.876 82.1913 266.609 82.7358 267.342L83.7567 268.74C84.7095 270.092 85.5262 271.169 86.343 272.154C90.109 277.08 94.4422 281.571 98.1855 285.306L100.159 287.3L78.9924 309.594L79.0378 309.571Z" fill="#C0A769"/>
<path d="M33.142 230.588L32.5522 227.747C31.3271 221.881 29.8524 214.136 29.2626 206.208C29.0811 204.65 28.9676 202.817 28.8996 200.755L28.8088 197.937L49.4085 196.837L49.5219 199.747C49.5673 200.847 50.4521 209.072 50.9966 213.999L45.3702 214.64C45.2568 213.655 44.5081 206.919 44.1225 202.863L34.7528 203.367C34.8208 204.192 34.8889 204.948 34.957 205.681C35.4334 212.166 36.5224 218.49 37.566 223.737L56.3507 219.475C55.4205 214.732 54.513 209.393 54.1274 204.031C53.9685 202.725 53.8778 201.213 53.8097 199.426L53.7417 197.822C53.6963 196.837 53.6509 195.851 53.6282 194.866V190.307C53.7417 182.035 54.6038 173.763 56.2145 165.652L37.4071 161.459C36.114 167.852 35.2292 174.703 34.7528 181.852L44.0998 182.31C44.4628 178.323 45.1434 171.678 45.3022 170.441L50.9285 171.22C50.7243 172.732 49.6127 183.937 49.5219 185.495L49.3404 188.313L28.7861 187.305L28.9223 184.441C29.3987 174.863 30.6011 165.767 32.4841 157.403L33.1193 154.631L62.9752 161.298L62.3627 164.094C60.4797 172.709 59.4588 181.531 59.3453 190.352V194.82C59.3453 195.691 59.3907 196.608 59.4361 197.524L59.5041 199.197C59.5495 200.869 59.6403 202.221 59.7991 203.482C60.2528 209.714 61.4098 215.855 62.4761 221.056L63.0433 223.828L33.1874 230.611L33.142 230.588Z" fill="#C0A769"/>
<path d="M66.3788 149.793L37.7026 139.07L38.7462 136.366C40.8788 130.775 43.8054 123.466 47.6168 116.5C48.3201 115.103 49.1822 113.499 50.2485 111.711L51.6777 109.306L69.555 119.708L68.0577 122.206C67.4905 123.145 63.8152 130.523 61.6146 134.968L56.5327 132.402C56.9638 131.508 59.9811 125.459 61.8415 121.839L53.7196 117.119C53.3339 117.829 52.9709 118.517 52.6533 119.181C49.5452 124.887 47.0496 130.798 45.0986 135.747L63.1573 142.507C64.9495 137.993 67.0594 133.021 69.6231 128.324C70.1902 127.155 70.9162 125.826 71.8464 124.291L72.6631 122.893C73.1395 122.045 73.6386 121.198 74.1377 120.373L76.6106 116.546C81.1706 109.672 86.3433 103.211 92.0603 97.2762L78.539 83.4137C74.0016 88.0651 69.555 93.3122 65.3125 99.0634L72.9126 104.585C75.3855 101.446 79.5372 96.2222 80.3086 95.3057L84.5964 99.0405C83.6208 100.186 76.656 108.962 75.7258 110.222L74.0697 112.491L57.3721 100.347L59.0283 98.0323C64.5866 90.2648 70.5078 83.2992 76.5879 77.3188L78.607 75.3254L100.046 97.322L98.027 99.3384C91.8108 105.525 86.1844 112.376 81.3295 119.708L78.902 123.466C78.4482 124.199 77.9945 124.978 77.5408 125.78L76.7013 127.247C75.8392 128.667 75.204 129.859 74.6368 131.004C71.6649 136.435 69.4189 142.003 67.3997 147.227L66.3788 149.862V149.793Z" fill="#C0A769"/>
<path d="M188.865 313.424C183.67 313.332 177.635 313.103 171.555 312.163C148.959 308.933 126.976 298.782 109.666 283.568C92.2875 268.399 79.1972 247.846 72.7995 225.712C69.646 215.012 67.9899 203.44 67.8992 191.319C67.9899 179.152 69.646 167.581 72.7995 156.881C79.1745 134.77 92.2648 114.217 109.666 99.048C126.976 83.8337 148.959 73.6831 171.578 70.4524C177.658 69.5358 183.67 69.3067 188.752 69.1921C193.947 69.2838 199.959 69.5129 206.062 70.4524C217.678 72.1479 228.772 75.4474 239.026 80.2363C259.83 89.814 278.116 105.83 290.503 125.329C303.048 144.943 309.696 167.765 309.696 191.296C309.696 214.851 303.048 237.673 290.503 257.286C278.116 276.785 259.83 292.802 239.003 302.379C228.772 307.145 217.678 310.445 206.039 312.14C199.959 313.08 193.947 313.309 188.843 313.401L188.865 313.424ZM188.752 74.9433C183.965 75.035 178.18 75.2641 172.395 76.1348C150.82 79.2052 129.88 88.8975 113.386 103.379C96.8022 117.86 84.3471 137.428 78.2444 158.508C75.227 168.704 73.6616 179.748 73.5709 191.342C73.6616 202.868 75.227 213.912 78.2444 224.108C84.3244 245.211 96.8022 264.779 113.386 279.237C129.88 293.741 150.82 303.411 172.372 306.481C178.18 307.375 183.965 307.581 188.865 307.672C193.652 307.581 199.438 307.352 205.223 306.481C216.339 304.854 226.889 301.715 236.644 297.178C256.495 288.036 273.918 272.776 285.738 254.193C297.694 235.496 304.024 213.751 304.024 191.319C304.024 168.887 297.694 147.143 285.738 128.446C273.918 109.84 256.495 94.5799 236.644 85.4605C226.889 80.9008 216.317 77.7617 205.223 76.1348C199.438 75.2412 193.63 75.035 188.729 74.9433H188.752Z" fill="#C0A769"/>
</svg>
