<svg width="228" height="229" viewBox="0 0 228 229" fill="none" xmlns="http://www.w3.org/2000/svg">
<path d="M113.998 227.295C175.858 227.295 226.005 177.148 226.005 115.288C226.005 53.4285 175.858 3.28125 113.998 3.28125C52.1386 3.28125 1.99133 53.4285 1.99133 115.288C1.99133 177.148 52.1386 227.295 113.998 227.295Z" fill="#212121"/>
<path d="M114 229C51.2941 229 0.284912 177.991 0.284912 115.285C0.284912 52.5795 51.3078 1.57031 114 1.57031C176.692 1.57031 227.715 52.5795 227.715 115.285C227.715 177.991 176.706 229 114 229ZM114 5.00008C53.1798 5.00008 3.70101 54.4788 3.70101 115.299C3.70101 176.119 53.1798 225.598 114 225.598C174.82 225.598 224.299 176.119 224.299 115.299C224.299 54.4788 174.82 4.98641 114 4.98641V5.00008Z" fill="#C0A769"/>
<path d="M113.82 221.118C108.833 221.118 103.859 220.763 98.9534 220.052C79.1264 217.265 59.846 208.451 44.6922 195.252C29.4973 182.12 18.0466 164.302 12.4442 145.09C9.65665 135.688 8.20822 125.659 8.15356 115.288C8.20822 104.889 9.65665 94.8593 12.4442 85.4581C18.0466 66.2597 29.4973 48.455 44.6922 35.3098C59.8323 22.1237 79.1127 13.3102 98.9534 10.5226C118.767 7.63943 139.728 10.6456 157.97 19.0082C176.171 27.3162 192.172 41.1718 203.008 58.0474C204.251 59.9194 205.385 61.9144 206.492 63.8274L207.613 65.9181C208.528 67.6534 209.471 69.4571 210.277 71.3292C212.286 75.6334 214.008 80.2657 215.552 85.4581C218.339 94.8593 219.788 104.889 219.842 115.26C219.788 125.659 218.339 135.688 215.552 145.09C214.021 150.282 212.286 154.914 210.264 159.26C209.471 161.077 208.528 162.881 207.626 164.63L206.492 166.72C205.399 168.633 204.265 170.628 203.008 172.514C192.186 189.362 176.185 203.232 157.97 211.54C144.251 217.839 128.988 221.091 113.82 221.105V221.118ZM113.82 12.8729C108.997 12.8729 104.187 13.2145 99.4317 13.9114C80.2332 16.6169 61.5813 25.1299 46.9194 37.9061C32.2029 50.6276 21.1211 67.8584 15.71 86.442C13.0044 95.5425 11.6107 105.258 11.556 115.301C11.6107 125.331 13.0044 135.046 15.71 144.133C21.1347 162.717 32.2166 179.961 46.9194 192.669C61.5813 205.445 80.2332 213.958 99.418 216.664C118.603 219.451 138.881 216.541 156.535 208.451C174.162 200.417 189.644 186.998 200.125 170.669C201.341 168.852 202.434 166.912 203.5 165.053L204.566 163.058C205.454 161.378 206.356 159.628 207.121 157.879C209.088 153.643 210.769 149.175 212.245 144.133C214.95 135.033 216.344 125.331 216.399 115.274C216.344 105.244 214.95 95.5288 212.259 86.442C210.769 81.4135 209.102 76.9316 207.148 72.7503C206.369 70.9602 205.454 69.2112 204.579 67.5305L203.513 65.5491C202.448 63.6771 201.341 61.7368 200.138 59.9467C189.63 43.5905 174.149 30.172 156.535 22.1374C143.253 16.043 128.482 12.8866 113.807 12.8866L113.82 12.8729Z" fill="#C0A769"/>
<path d="M65.5039 53.7404L54.3948 39.0512L55.7885 38.0264C58.6581 35.9084 62.4978 33.1892 66.6654 30.9072C67.4716 30.429 68.4281 29.9097 69.5349 29.3632L71.038 28.6116L76.7771 39.6388L75.2193 40.4177C74.6317 40.7046 70.3821 43.2188 67.8542 44.7356L66.1052 41.7977C66.6107 41.4971 70.0815 39.4201 72.1858 38.204L69.5759 33.1892C69.1523 33.4215 68.7424 33.6538 68.3598 33.8724C64.9574 35.7308 61.7872 37.8897 59.2183 39.7481L66.2145 48.9989C68.5648 47.3182 71.2293 45.5008 74.0442 43.9704C74.7137 43.5605 75.5063 43.1369 76.4628 42.6586L77.351 42.2077C77.8565 41.9481 78.3758 41.6748 78.8814 41.4288L81.3683 40.3083C85.8912 38.327 90.5918 36.7556 95.388 35.6351L92.983 24.28C89.1843 25.1545 85.249 26.3433 81.2453 27.8464L83.3223 33.0799C85.5769 32.301 89.362 31.0165 90.0588 30.8116L91.0427 34.0774C90.1818 34.337 83.8142 36.496 82.9534 36.8239L81.382 37.4251L76.8044 25.9061L78.4031 25.2775C83.7186 23.1732 88.9657 21.5881 93.9669 20.5633L95.6339 20.2217L99.4599 38.2313L97.7929 38.5866C92.6551 39.6798 87.5992 41.3058 82.7894 43.4101L80.3571 44.5033C79.9062 44.7219 79.4279 44.9679 78.9497 45.2138L78.0205 45.6921C77.1323 46.1294 76.4218 46.512 75.7659 46.9082C72.5138 48.6846 69.4529 50.8299 66.8977 52.7156L65.5449 53.7131L65.5039 53.7404Z" fill="#C0A769"/>
<path d="M143.432 42.8334L141.833 42.2185C136.927 40.3328 131.803 38.9527 126.625 38.0918L123.987 37.6819C123.482 37.6136 122.949 37.5589 122.402 37.5043L121.377 37.395C120.394 37.2856 119.587 37.2173 118.822 37.19C115.133 36.903 111.389 37.0533 108.219 37.231L106.538 37.3266L105.226 18.948L106.948 18.8524C110.514 18.6474 115.201 18.4561 119.943 18.8114C120.872 18.8524 121.965 18.9344 123.195 19.071L124.862 19.2623L123.673 31.6286L121.938 31.4236C121.282 31.3416 116.363 31.1503 113.411 31.0273L113.534 27.6112C114.122 27.6386 118.153 27.7889 120.599 27.9119L121.145 22.2958C120.653 22.2548 120.202 22.2275 119.751 22.2138C115.884 21.9269 112.045 22.0089 108.874 22.1592L109.708 33.7329C112.591 33.5963 115.816 33.5416 119.013 33.7876C119.792 33.8149 120.694 33.8832 121.76 34.0062L122.73 34.1018C123.304 34.1565 123.878 34.2112 124.452 34.2931L127.144 34.7031C132.022 35.5093 136.818 36.7527 141.45 38.4198L145.618 27.5839C141.956 26.2448 138.007 25.1107 133.826 24.1952L132.719 29.7156C135.042 30.2895 138.909 31.287 139.606 31.4783L138.649 34.7577C137.788 34.4981 131.284 32.8584 130.369 32.6534L128.729 32.2981L131.161 20.1368L132.842 20.4784C138.444 21.6126 143.705 23.1293 148.46 25.0014L150.045 25.6163L143.445 42.8061L143.432 42.8334Z" fill="#C0A769"/>
<path d="M177.935 69.1781L176.896 67.8253C173.713 63.6577 170.078 59.7907 166.102 56.3472L164.066 54.6255C163.669 54.3113 163.246 53.9833 162.808 53.6554L161.989 53.0268C161.196 52.4119 160.554 51.9336 159.925 51.5101C156.933 49.3374 153.817 47.5747 150.879 45.9896L149.404 45.1971L157.903 28.8545L159.433 29.6744C162.576 31.3551 166.675 33.6507 170.529 36.4382C171.308 36.9575 172.182 37.5997 173.152 38.3649L174.478 39.4034L166.99 49.3101L165.623 48.2306C165.104 47.8207 161.018 45.0741 158.559 43.4344L160.458 40.5922C160.95 40.9202 164.312 43.1611 166.32 44.5412L169.723 40.032C169.326 39.745 168.944 39.4854 168.589 39.2394C165.446 36.9711 162.139 35.0308 159.351 33.5004L153.995 43.7897C156.591 45.2244 159.297 46.8232 161.893 48.7089C162.535 49.1325 163.259 49.6654 164.12 50.3349L164.899 50.9361C165.364 51.2914 165.815 51.633 166.266 52.002L168.343 53.7647C172.073 57.0031 175.516 60.5832 178.577 64.4229L187.801 57.3721C185.382 54.3113 182.608 51.2641 179.534 48.2989L175.694 52.4256C177.375 54.1336 180.149 57.0031 180.64 57.5361L178.099 59.8317C177.498 59.1621 172.811 54.3523 172.141 53.6964L170.925 52.5349L179.37 43.4481L180.627 44.6095C184.808 48.5176 188.484 52.5622 191.572 56.6342L192.597 57.987L177.962 69.1781H177.935Z" fill="#C0A769"/>
<path d="M192.064 110.962L191.955 109.254C191.599 104.007 190.711 98.7869 189.304 93.7174L188.566 91.1485C188.416 90.6702 188.238 90.151 188.06 89.6317L187.732 88.6752C187.418 87.7324 187.145 86.9808 186.844 86.2703C185.546 82.7995 183.92 79.6157 182.349 76.6642L181.556 75.1748L197.68 66.252L198.5 67.7824C200.194 70.9252 202.34 75.1065 204.007 79.5611C204.376 80.4356 204.745 81.4468 205.141 82.6219L205.674 84.2206L193.95 88.3336L193.403 86.6802C193.198 86.0517 191.313 81.5014 190.165 78.7685L193.321 77.4568C193.553 78.0033 195.111 81.72 196.013 83.9883L201.342 82.1163C201.178 81.6654 201.001 81.2281 200.837 80.8182C199.47 77.1835 197.789 73.7537 196.314 70.9252L186.175 76.5412C187.514 79.1101 188.921 82.007 190.042 84.9995C190.342 85.7237 190.657 86.5709 190.998 87.5821L191.313 88.4976C191.504 89.0442 191.695 89.5907 191.873 90.151L192.638 92.7745C193.963 97.5298 194.852 102.408 195.275 107.313L206.849 106.535C206.521 102.64 205.892 98.5819 204.977 94.4006L199.498 95.726C199.948 98.0763 200.686 101.998 200.796 102.722L197.421 103.228C197.284 102.326 196.04 95.7261 195.849 94.8242L195.48 93.1845L207.532 90.2876L207.928 91.9547C209.254 97.5161 210.087 102.927 210.402 108.024L210.511 109.718L192.132 110.962H192.064Z" fill="#C0A769"/>
<path d="M197.406 162.831L181.323 153.867L182.157 152.378C184.712 147.786 186.816 142.922 188.388 137.893L189.167 135.338C189.303 134.86 189.426 134.327 189.563 133.794L189.809 132.797C190.068 131.826 190.246 131.034 190.369 130.296C191.175 126.689 191.544 123.122 191.831 119.788L191.981 118.107L210.36 119.392L210.223 121.114C209.923 124.666 209.458 129.353 208.433 133.985C208.269 134.901 208.023 135.967 207.723 137.169L207.299 138.795L195.22 135.871L195.657 134.19C195.821 133.562 196.723 128.711 197.242 125.8L200.604 126.415C200.494 127.003 199.784 130.966 199.306 133.357L204.799 134.682C204.908 134.204 204.99 133.753 205.072 133.316C205.905 129.531 206.356 125.718 206.657 122.548L195.083 121.742C194.81 124.625 194.414 127.823 193.717 130.952C193.58 131.703 193.389 132.578 193.116 133.644L192.883 134.587C192.747 135.147 192.61 135.707 192.446 136.267L191.654 138.877C190.164 143.592 188.251 148.169 185.955 152.514L196.094 158.171C197.939 154.742 199.62 150.984 201.123 146.98L195.808 145.108C194.906 147.322 193.375 151.025 193.088 151.681L189.973 150.26C190.342 149.454 192.897 143.25 193.225 142.348L193.812 140.777L205.496 144.903L204.922 146.516C203.009 151.913 200.754 156.901 198.24 161.342L197.406 162.817V162.831Z" fill="#C0A769"/>
<path d="M159.364 200.373L150.359 184.304L151.849 183.47C156.426 180.901 160.772 177.854 164.748 174.411L166.743 172.634C167.112 172.293 167.508 171.91 167.891 171.514L168.615 170.803C169.339 170.12 169.899 169.533 170.405 168.972C172.974 166.321 175.16 163.479 177.155 160.787L178.153 159.435L193.129 170.161L192.104 171.555C189.986 174.424 187.144 178.168 183.837 181.585C183.209 182.281 182.457 183.06 181.555 183.921L180.339 185.083L171.594 176.255L172.851 175.053C173.329 174.602 176.622 170.94 178.604 168.74L181.145 171.022C180.749 171.459 178.057 174.465 176.404 176.255L180.38 180.259C180.722 179.904 181.036 179.576 181.337 179.248C184.028 176.46 186.42 173.454 188.319 170.913L178.891 164.162C177.101 166.54 175.147 168.986 172.906 171.282C172.386 171.869 171.758 172.511 170.979 173.249L170.296 173.919C169.886 174.329 169.462 174.739 169.039 175.135L167.003 176.952C163.272 180.191 159.241 183.088 155.005 185.575L160.676 195.7C164.051 193.746 167.454 191.423 170.829 188.799L167.29 184.413C165.363 185.834 162.138 188.171 161.523 188.581L159.61 185.752C160.362 185.247 165.786 181.298 166.524 180.724L167.85 179.685L175.652 189.319L174.313 190.398C169.858 193.992 165.322 197.066 160.854 199.526L159.364 200.346V200.373Z" fill="#C0A769"/>
<path d="M113.945 211.946C111.54 211.946 109.203 211.85 106.949 211.673L105.254 211.536L106.648 193.171L108.356 193.294C113.603 193.69 118.905 193.554 124.111 192.884L126.762 192.515C127.254 192.433 127.787 192.337 128.32 192.228L129.331 192.037C130.288 191.873 131.094 191.695 131.832 191.504C135.439 190.725 138.828 189.564 141.971 188.429L143.556 187.855L150.101 205.073L148.475 205.66C145.127 206.876 140.686 208.42 136.04 209.432C135.138 209.664 134.073 209.896 132.856 210.115L131.203 210.415L128.798 198.227L130.506 197.926C131.148 197.817 135.931 196.587 138.787 195.849L139.648 199.156C139.074 199.306 135.166 200.317 132.802 200.891L133.895 206.425C134.373 206.316 134.824 206.22 135.248 206.111C139.046 205.278 142.681 204.102 145.674 203.037L141.561 192.187C138.759 193.171 135.767 194.127 132.638 194.811C131.886 195.016 130.971 195.207 129.946 195.385L128.976 195.576C128.416 195.685 127.842 195.794 127.281 195.89L124.576 196.273C119.67 196.901 114.724 197.093 109.805 196.819L108.93 208.393C112.824 208.625 116.937 208.584 121.201 208.256L120.668 202.64C118.277 202.75 114.287 202.914 113.562 202.927L113.535 199.511C114.437 199.511 121.146 199.224 122.075 199.142L123.756 199.006L124.917 211.345L123.209 211.495C120.039 211.782 116.951 211.932 113.945 211.932V211.946Z" fill="#C0A769"/>
<path d="M95.6738 210.075L93.9931 209.693C90.5223 208.9 85.9584 207.766 81.5038 206.085C80.6019 205.785 79.5771 205.388 78.4566 204.924L76.9126 204.268L81.5311 192.735L83.1299 193.405C83.7311 193.664 88.4043 195.236 91.2055 196.179L90.126 199.417C89.5658 199.226 85.7398 197.955 83.4305 197.149L81.3262 202.396C81.7771 202.574 82.2143 202.724 82.6379 202.861C86.2727 204.227 89.9757 205.224 93.0639 205.962L95.5098 194.621C92.6949 193.938 89.5931 193.09 86.5869 191.956C85.8491 191.724 85.0155 191.396 84.018 190.973L83.0889 190.59C82.5559 190.371 82.023 190.166 81.5038 189.934L79.0305 188.786C74.5759 186.655 70.3263 184.099 66.35 181.202L59.3128 190.426C62.4556 192.749 65.9264 194.949 69.6704 196.999L72.2803 192.011C70.217 190.809 66.7872 188.773 66.1723 188.376L68.017 185.493C68.7959 185.985 74.5759 189.401 75.3821 189.838L76.8579 190.645L71.1052 201.631L69.5884 200.838C64.5326 198.174 59.914 195.236 55.8694 192.12L54.5303 191.082L65.6941 176.434L67.0469 177.472C71.2282 180.656 75.7511 183.43 80.4926 185.712L82.9112 186.846C83.3622 187.051 83.8677 187.242 84.3596 187.447L85.3298 187.843C86.2453 188.226 86.9969 188.527 87.7211 188.759C91.1918 190.071 94.8129 190.986 97.9147 191.697L99.5545 192.079L95.6601 210.089L95.6738 210.075Z" fill="#C0A769"/>
<path d="M47.8897 185.807L46.6599 184.591C44.1183 182.09 40.8252 178.729 37.9147 174.971C37.3135 174.247 36.6439 173.386 35.9333 172.388L34.9495 171.022L44.9245 163.616L45.9357 165.037C46.3183 165.57 49.4748 169.369 51.3604 171.623L48.7369 173.823C48.3543 173.372 45.7717 170.27 44.2276 168.385L39.6911 171.746C39.9917 172.129 40.2786 172.498 40.5519 172.826C42.9295 175.886 45.5667 178.674 47.8077 180.929L55.8287 172.552C53.7927 170.503 51.5927 168.152 49.6251 165.611C49.1195 165.01 48.5729 164.299 47.9443 163.424L47.3568 162.632C47.0152 162.167 46.6736 161.703 46.3456 161.238L44.8425 158.97C42.1643 154.816 39.8824 150.416 38.0103 145.866L27.1881 150.047C28.6502 153.668 30.4539 157.358 32.5719 161.074L37.4091 158.191C36.2886 156.087 34.4166 152.561 34.1023 151.892L37.1768 150.402C37.5731 151.222 40.7159 157.166 41.1805 157.959L42.014 159.421L31.3694 165.761L30.4949 164.285C27.5707 159.366 25.1795 154.447 23.3758 149.664L22.7745 148.079L39.9643 141.452L40.5792 143.051C42.4649 147.956 44.8699 152.684 47.7121 157.112L49.1878 159.339C49.4748 159.749 49.789 160.186 50.117 160.623L50.7319 161.457C51.3058 162.263 51.7977 162.905 52.2896 163.493C54.5579 166.431 57.1678 169.109 59.4224 171.336L60.6112 172.525L47.8624 185.82L47.8897 185.807Z" fill="#C0A769"/>
<path d="M20.2465 138.705L19.8912 137.01C19.1533 133.512 18.2652 128.894 17.9099 124.166C17.8006 123.237 17.7322 122.143 17.6912 120.914L17.6366 119.233L30.0439 118.577L30.1122 120.312C30.1395 120.968 30.6724 125.874 31.0004 128.812L27.6116 129.194C27.5433 128.607 27.0924 124.589 26.8601 122.171L21.2167 122.471C21.2577 122.963 21.2986 123.414 21.3396 123.851C21.6266 127.719 22.2825 131.49 22.911 134.619L34.2252 132.077C33.6649 129.249 33.1183 126.065 32.8861 122.868C32.7904 122.089 32.7357 121.187 32.6948 120.121L32.6538 119.165C32.6264 118.577 32.5991 117.989 32.5854 117.402V114.683C32.6538 109.75 33.173 104.817 34.1432 99.9798L22.8154 97.4792C22.0365 101.292 21.5036 105.377 21.2167 109.641L26.8464 109.914C27.065 107.536 27.475 103.574 27.5706 102.836L30.9594 103.3C30.8364 104.202 30.1668 110.884 30.1122 111.813L30.0029 113.494L17.6229 112.893L17.7049 111.185C17.9919 105.473 18.7161 100.048 19.8502 95.0606L20.2328 93.4072L38.2152 97.3836L37.8462 99.0506C36.7121 104.188 36.0972 109.449 36.0289 114.71V117.375C36.0289 117.894 36.0562 118.44 36.0835 118.987L36.1245 119.984C36.1518 120.982 36.2065 121.788 36.3022 122.54C36.5754 126.256 37.2723 129.918 37.9146 133.02L38.2562 134.674L20.2738 138.718L20.2465 138.705Z" fill="#C0A769"/>
<path d="M40.2651 90.5235L22.9933 84.1286L23.6218 82.5162C24.9063 79.1821 26.669 74.8231 28.9646 70.6692C29.3882 69.8356 29.9075 68.8791 30.5497 67.8133L31.4106 66.3786L42.1781 72.5822L41.2762 74.0716C40.9346 74.6318 38.721 79.0318 37.3956 81.6827L34.3347 80.1523C34.5944 79.6193 36.4117 76.0119 37.5322 73.853L32.6403 71.0381C32.4081 71.4617 32.1894 71.8716 31.9981 72.2679C30.1261 75.6703 28.623 79.1958 27.4479 82.1473L38.3247 86.1783C39.4042 83.4864 40.675 80.5212 42.2191 77.72C42.5607 77.0231 42.998 76.2306 43.5582 75.3151L44.0501 74.4815C44.3371 73.976 44.6377 73.4704 44.9383 72.9784L46.4277 70.6965C49.1743 66.5972 52.2897 62.7438 55.7332 59.2047L47.5892 50.9378C44.8563 53.7117 42.1781 56.8408 39.6229 60.2706L44.2004 63.5637C45.6898 61.6917 48.1904 58.5762 48.655 58.0296L51.2376 60.2569C50.65 60.9401 46.455 66.1736 45.8948 66.9251L44.8973 68.2779L34.8403 61.0358L35.8378 59.6557C39.1856 55.0234 42.752 50.8695 46.4141 47.3031L47.6302 46.1143L60.543 59.2321L59.3269 60.4345C55.5829 64.1239 52.1941 68.2096 49.2699 72.5822L47.8078 74.8231C47.5345 75.2604 47.2613 75.725 46.988 76.2032L46.4824 77.0778C45.9631 77.925 45.5805 78.6355 45.2389 79.3187C43.4489 82.5572 42.0961 85.8776 40.88 88.9931L40.2651 90.5645V90.5235Z" fill="#C0A769"/>
<path d="M114.039 188.105C110.91 188.05 107.275 187.914 103.613 187.353C90.0037 185.427 76.7629 179.373 66.3369 170.3C55.87 161.254 47.9856 148.997 44.1323 135.798C42.2329 129.416 41.2354 122.516 41.1808 115.287C41.2354 108.031 42.2329 101.131 44.1323 94.7497C47.972 81.5635 55.8563 69.3066 66.3369 60.2608C76.7629 51.1876 90.0037 45.1343 103.627 43.2076C107.289 42.661 110.91 42.5244 113.971 42.4561C117.1 42.5107 120.721 42.6474 124.397 43.2076C131.393 44.2188 138.075 46.1864 144.251 49.0423C156.782 54.754 167.795 64.3054 175.256 75.9338C182.812 87.6305 186.816 101.24 186.816 115.274C186.816 129.321 182.812 142.93 175.256 154.627C167.795 166.255 156.782 175.807 144.238 181.519C138.075 184.361 131.393 186.328 124.383 187.34C120.721 187.9 117.1 188.036 114.026 188.091L114.039 188.105ZM113.971 45.8858C111.088 45.9405 107.603 46.0771 104.119 46.5964C91.1241 48.4274 78.5119 54.2074 68.5779 62.8433C58.5892 71.4792 51.0875 83.1486 47.4117 95.7199C45.5944 101.801 44.6515 108.387 44.5969 115.301C44.6515 122.174 45.5944 128.76 47.4117 134.841C51.0738 147.426 58.5892 159.095 68.5779 167.718C78.5119 176.367 91.1241 182.133 104.105 183.965C107.603 184.497 111.088 184.62 114.039 184.675C116.923 184.62 120.407 184.484 123.891 183.965C130.587 182.994 136.941 181.122 142.817 178.417C154.773 172.965 165.267 163.864 172.386 152.782C179.587 141.632 183.4 128.665 183.4 115.287C183.4 101.91 179.587 88.9423 172.386 77.7922C165.267 66.6967 154.773 57.5962 142.817 52.1578C136.941 49.4386 130.573 47.5665 123.891 46.5964C120.407 46.0635 116.909 45.9405 113.957 45.8858H113.971Z" fill="#C0A769"/>
<path d="M79.7893 136.307C84.72 131.376 84.72 123.382 79.7893 118.451C74.8586 113.52 66.8643 113.52 61.9336 118.451C57.0029 123.382 57.0029 131.376 61.9336 136.307C66.8643 141.237 74.8586 141.237 79.7893 136.307Z" fill="#212121"/>
<path d="M70.857 141.713C62.959 141.713 56.5231 135.291 56.5231 127.379C56.5231 119.467 62.9453 113.045 70.857 113.045C78.7687 113.045 85.191 119.467 85.191 127.379C85.191 135.291 78.7687 141.713 70.857 141.713ZM70.857 116.475C64.8447 116.475 59.9392 121.367 59.9392 127.393C59.9392 133.419 64.831 138.31 70.857 138.31C76.883 138.31 81.7749 133.419 81.7749 127.393C81.7749 121.367 76.883 116.475 70.857 116.475Z" fill="#C0A769"/>
<path d="M70.5366 107.13C72.1325 100.342 67.9234 93.5454 61.1354 91.9496C54.3473 90.3537 47.5509 94.5628 45.955 101.351C44.3591 108.139 48.5682 114.935 55.3562 116.531C62.1442 118.127 68.9407 113.918 70.5366 107.13Z" fill="#212121"/>
<path d="M58.2307 118.569C50.3327 118.569 43.8967 112.147 43.8967 104.235C43.8967 96.3236 50.319 89.9014 58.2307 89.9014C66.1424 89.9014 72.5646 96.3236 72.5646 104.235C72.5646 112.147 66.1424 118.569 58.2307 118.569ZM58.2307 93.3311C52.2183 93.3311 47.3128 98.223 47.3128 104.249C47.3128 110.275 52.2047 115.167 58.2307 115.167C64.2567 115.167 69.1485 110.275 69.1485 104.249C69.1485 98.223 64.2567 93.3311 58.2307 93.3311Z" fill="#C0A769"/>
<path d="M163.173 138.598C169.958 136.989 174.154 130.184 172.545 123.399C170.937 116.614 164.132 112.418 157.347 114.027C150.562 115.636 146.366 122.441 147.975 129.226C149.584 136.011 156.388 140.207 163.173 138.598Z" fill="#212121"/>
<path d="M160.25 140.663C152.352 140.663 145.916 134.241 145.916 126.329C145.916 118.417 152.338 111.995 160.25 111.995C168.161 111.995 174.584 118.417 174.584 126.329C174.584 134.241 168.161 140.663 160.25 140.663ZM160.25 115.425C154.237 115.425 149.332 120.317 149.332 126.343C149.332 132.369 154.224 137.261 160.25 137.261C166.276 137.261 171.168 132.369 171.168 126.343C171.168 120.317 166.276 115.425 160.25 115.425Z" fill="#C0A769"/>
<path d="M181.803 112.127C186.734 107.196 186.734 99.2021 181.803 94.2714C176.872 89.3406 168.878 89.3406 163.947 94.2714C159.017 99.2021 159.017 107.196 163.947 112.127C168.878 117.058 176.872 117.058 181.803 112.127Z" fill="#212121"/>
<path d="M172.875 117.521C164.977 117.521 158.541 111.099 158.541 103.187C158.541 95.2758 164.963 88.8535 172.875 88.8535C180.787 88.8535 187.209 95.2758 187.209 103.187C187.209 111.099 180.787 117.521 172.875 117.521ZM172.875 92.2833C166.863 92.2833 161.957 97.1751 161.957 103.201C161.957 109.227 166.849 114.119 172.875 114.119C178.901 114.119 183.793 109.227 183.793 103.201C183.793 97.1751 178.901 92.2833 172.875 92.2833Z" fill="#C0A769"/>
<path d="M62.6428 82.3145C72.3035 122.679 90.1902 177.842 115.852 177.788C141.459 177.733 159.031 122.638 168.446 82.3145H62.6428Z" fill="#212121"/>
<path d="M115.826 179.496C89.6447 179.496 71.5531 126.874 60.9905 82.7108C60.8675 82.2052 60.9905 81.6723 61.3048 81.2487C61.6327 80.8387 62.1246 80.5928 62.6439 80.5928H168.461C168.98 80.5928 169.472 80.8251 169.8 81.235C170.128 81.6449 170.237 82.1779 170.128 82.6834C159.811 126.806 142.034 179.414 115.867 179.482H115.826V179.496ZM64.8165 84.0225C79.2598 143.422 97.3514 176.08 115.826 176.08H115.853C134.3 176.039 152.187 143.367 166.302 84.0225H64.8165Z" fill="#C0A769"/>
<path d="M119.173 166.159H111.917V169.575H119.173V166.159Z" fill="#C0A769"/>
<path d="M101.861 120.901H85.1904V124.317H101.861V120.901Z" fill="#C0A769"/>
<path d="M145.915 120.901H129.244V124.317H145.915V120.901Z" fill="#C0A769"/>
<path d="M115.552 145.172C110.66 145.172 106.67 141.223 106.602 136.358L103.65 116.039L82.7572 114.058L83.0851 110.655L106.643 112.883L110.004 136.221C110.004 139.269 112.491 141.755 115.538 141.755C118.585 141.755 121.072 139.269 121.072 136.221V135.975L124.434 112.883L147.991 110.655L148.319 114.058L127.426 116.039L124.475 136.358C124.406 141.236 120.416 145.172 115.524 145.172H115.552Z" fill="#C0A769"/>
<path d="M95.2741 122.5H91.858V127.761H95.2741V122.5Z" fill="#C0A769"/>
<path d="M139.451 122.5H136.034V127.761H139.451V122.5Z" fill="#C0A769"/>
<path d="M115.553 163.686C109.95 163.686 104.936 160.597 102.462 155.637L103.993 153.164H127.113L128.643 155.637C126.17 160.597 121.155 163.686 115.553 163.686ZM107.19 156.58C109.267 158.93 112.232 160.27 115.553 160.27C118.873 160.27 121.852 158.93 123.915 156.58H107.176H107.19Z" fill="#C0A769"/>
<path d="M103.994 156.592C103.679 156.592 103.365 156.51 103.078 156.318C102.286 155.813 102.053 154.747 102.559 153.955C105.087 150.006 109.951 147.642 115.554 147.642C121.156 147.642 126.021 150.006 128.549 153.955C129.054 154.747 128.822 155.799 128.029 156.318C127.237 156.824 126.185 156.592 125.665 155.799C123.793 152.875 119.913 151.071 115.54 151.058C111.168 151.058 107.287 152.875 105.415 155.799C105.087 156.305 104.54 156.578 103.98 156.578L103.994 156.592Z" fill="#C0A769"/>
<path d="M170.402 80.7445C170.402 52.5685 145.916 29.7354 115.717 29.7354C85.5189 29.7354 61.0323 52.5685 61.0323 80.7445C61.0323 81.701 67.3453 152.783 67.3453 152.783H76.8147V105.463L93.7312 89.5444L137.813 89.6947L154.633 105.463V152.783H164.103C164.103 152.783 170.416 81.7147 170.416 80.7445H170.402Z" fill="#212121"/>
<path d="M165.647 154.491H152.912V106.201L137.115 91.3891L94.3869 91.2388L78.4952 106.188V154.478H65.76L65.6234 152.92C64.1476 136.222 59.3104 81.6874 59.3104 80.7309C59.3104 51.6667 84.6032 28.0137 115.703 28.0137C146.804 28.0137 172.096 51.6667 172.096 80.7309C172.096 81.7284 166.836 141.046 165.783 152.92L165.647 154.478V154.491ZM156.328 151.075H162.518C164.69 126.561 168.598 82.4526 168.68 80.7172C168.667 53.5524 144.904 31.4434 115.703 31.4434C86.5026 31.4434 62.7265 53.5524 62.7265 80.7446C62.7948 82.1247 66.7029 126.466 68.8892 151.075H75.0791V104.726L93.0341 87.8227L138.468 87.973L156.328 104.712V151.075Z" fill="#C0A769"/>
<path d="M120.814 85.8416H110.292L93.4712 1.70996H137.635L120.814 85.8416Z" fill="#212121"/>
<path d="M122.207 87.5478H108.884L91.3796 0H139.711L122.207 87.5478ZM111.685 84.1317H119.405L135.543 3.4161H95.5336L111.671 84.1317H111.685Z" fill="#C0A769"/>
<path d="M118.874 85.8416H112.233L104.773 1.70996H126.335L118.874 85.8416Z" fill="#212121"/>
<path d="M120.431 87.5478H110.661L102.9 0H128.192L120.431 87.5478ZM113.79 84.1317H117.302L124.462 3.4161H106.63L113.79 84.1317Z" fill="#C0A769"/>
<path d="M117.261 2.23047H113.845V85.8429H117.261V2.23047Z" fill="#C0A769"/>
<path d="M139.353 91.1007L115.555 67.3027L91.7569 91.1007L115.555 114.899L139.353 91.1007Z" fill="#212121"/>
<path d="M115.553 117.308L89.3445 91.0999L115.553 64.8916L141.761 91.0999L115.553 117.308ZM94.168 91.0999L115.553 112.485L136.938 91.0999L115.553 69.7151L94.168 91.0999Z" fill="#C0A769"/>
</svg>
